G04 #@! TF.FileFunction,Legend,Top*
%FSLAX46Y46*%
G04 Gerber Fmt 4.6, Leading zero omitted, Abs format (unit mm)*
G04 Created by KiCad (PCBNEW (after 2015-mar-04 BZR unknown)-product) date 24.06.2015 23:23:42*
%MOMM*%
G01*
G04 APERTURE LIST*
%ADD10C,0.100000*%
%ADD11C,0.200000*%
%ADD12C,0.300000*%
%ADD13C,0.250000*%
%ADD14C,0.125000*%
%ADD15C,0.150000*%
G04 APERTURE END LIST*
D10*
D11*
X192220953Y-99421905D02*
X192220953Y-98621905D01*
X192411429Y-98621905D01*
X192525715Y-98660000D01*
X192601906Y-98736190D01*
X192640001Y-98812381D01*
X192678096Y-98964762D01*
X192678096Y-99079048D01*
X192640001Y-99231429D01*
X192601906Y-99307619D01*
X192525715Y-99383810D01*
X192411429Y-99421905D01*
X192220953Y-99421905D01*
X193020953Y-99421905D02*
X193020953Y-98621905D01*
X193554286Y-98621905D02*
X193706667Y-98621905D01*
X193782858Y-98660000D01*
X193859048Y-98736190D01*
X193897143Y-98888571D01*
X193897143Y-99155238D01*
X193859048Y-99307619D01*
X193782858Y-99383810D01*
X193706667Y-99421905D01*
X193554286Y-99421905D01*
X193478096Y-99383810D01*
X193401905Y-99307619D01*
X193363810Y-99155238D01*
X193363810Y-98888571D01*
X193401905Y-98736190D01*
X193478096Y-98660000D01*
X193554286Y-98621905D01*
X187483810Y-99345714D02*
X187445715Y-99383810D01*
X187331429Y-99421905D01*
X187255239Y-99421905D01*
X187140953Y-99383810D01*
X187064762Y-99307619D01*
X187026667Y-99231429D01*
X186988572Y-99079048D01*
X186988572Y-98964762D01*
X187026667Y-98812381D01*
X187064762Y-98736190D01*
X187140953Y-98660000D01*
X187255239Y-98621905D01*
X187331429Y-98621905D01*
X187445715Y-98660000D01*
X187483810Y-98698095D01*
X188207620Y-99421905D02*
X187826667Y-99421905D01*
X187826667Y-98621905D01*
X188474286Y-99421905D02*
X188474286Y-98621905D01*
X188931429Y-99421905D02*
X188588572Y-98964762D01*
X188931429Y-98621905D02*
X188474286Y-99079048D01*
X188126857Y-94384762D02*
X188269714Y-94432381D01*
X188507810Y-94432381D01*
X188603048Y-94384762D01*
X188650667Y-94337143D01*
X188698286Y-94241905D01*
X188698286Y-94146667D01*
X188650667Y-94051429D01*
X188603048Y-94003810D01*
X188507810Y-93956190D01*
X188317333Y-93908571D01*
X188222095Y-93860952D01*
X188174476Y-93813333D01*
X188126857Y-93718095D01*
X188126857Y-93622857D01*
X188174476Y-93527619D01*
X188222095Y-93480000D01*
X188317333Y-93432381D01*
X188555429Y-93432381D01*
X188698286Y-93480000D01*
X189031619Y-93432381D02*
X189269714Y-94432381D01*
X189460191Y-93718095D01*
X189650667Y-94432381D01*
X189888762Y-93432381D01*
X190269714Y-94432381D02*
X190269714Y-93432381D01*
X190507809Y-93432381D01*
X190650667Y-93480000D01*
X190745905Y-93575238D01*
X190793524Y-93670476D01*
X190841143Y-93860952D01*
X190841143Y-94003810D01*
X190793524Y-94194286D01*
X190745905Y-94289524D01*
X190650667Y-94384762D01*
X190507809Y-94432381D01*
X190269714Y-94432381D01*
D12*
X140057143Y-108538571D02*
X140057143Y-109752857D01*
X140128571Y-109895714D01*
X140200000Y-109967143D01*
X140342857Y-110038571D01*
X140628571Y-110038571D01*
X140771429Y-109967143D01*
X140842857Y-109895714D01*
X140914286Y-109752857D01*
X140914286Y-108538571D01*
X141628572Y-110038571D02*
X141628572Y-109038571D01*
X141628572Y-108538571D02*
X141557143Y-108610000D01*
X141628572Y-108681429D01*
X141700000Y-108610000D01*
X141628572Y-108538571D01*
X141628572Y-108681429D01*
X142271429Y-109967143D02*
X142485715Y-110038571D01*
X142842858Y-110038571D01*
X142985715Y-109967143D01*
X143057144Y-109895714D01*
X143128572Y-109752857D01*
X143128572Y-109610000D01*
X143057144Y-109467143D01*
X142985715Y-109395714D01*
X142842858Y-109324286D01*
X142557144Y-109252857D01*
X142414286Y-109181429D01*
X142342858Y-109110000D01*
X142271429Y-108967143D01*
X142271429Y-108824286D01*
X142342858Y-108681429D01*
X142414286Y-108610000D01*
X142557144Y-108538571D01*
X142914286Y-108538571D01*
X143128572Y-108610000D01*
X144842857Y-109967143D02*
X145057143Y-110038571D01*
X145414286Y-110038571D01*
X145557143Y-109967143D01*
X145628572Y-109895714D01*
X145700000Y-109752857D01*
X145700000Y-109610000D01*
X145628572Y-109467143D01*
X145557143Y-109395714D01*
X145414286Y-109324286D01*
X145128572Y-109252857D01*
X144985714Y-109181429D01*
X144914286Y-109110000D01*
X144842857Y-108967143D01*
X144842857Y-108824286D01*
X144914286Y-108681429D01*
X144985714Y-108610000D01*
X145128572Y-108538571D01*
X145485714Y-108538571D01*
X145700000Y-108610000D01*
X146985714Y-109038571D02*
X146985714Y-110038571D01*
X146342857Y-109038571D02*
X146342857Y-109824286D01*
X146414285Y-109967143D01*
X146557143Y-110038571D01*
X146771428Y-110038571D01*
X146914285Y-109967143D01*
X146985714Y-109895714D01*
X147700000Y-110038571D02*
X147700000Y-108538571D01*
X147700000Y-109110000D02*
X147842857Y-109038571D01*
X148128571Y-109038571D01*
X148271428Y-109110000D01*
X148342857Y-109181429D01*
X148414286Y-109324286D01*
X148414286Y-109752857D01*
X148342857Y-109895714D01*
X148271428Y-109967143D01*
X148128571Y-110038571D01*
X147842857Y-110038571D01*
X147700000Y-109967143D01*
X148985714Y-109967143D02*
X149128571Y-110038571D01*
X149414286Y-110038571D01*
X149557143Y-109967143D01*
X149628571Y-109824286D01*
X149628571Y-109752857D01*
X149557143Y-109610000D01*
X149414286Y-109538571D01*
X149200000Y-109538571D01*
X149057143Y-109467143D01*
X148985714Y-109324286D01*
X148985714Y-109252857D01*
X149057143Y-109110000D01*
X149200000Y-109038571D01*
X149414286Y-109038571D01*
X149557143Y-109110000D01*
X150842857Y-109967143D02*
X150700000Y-110038571D01*
X150414286Y-110038571D01*
X150271429Y-109967143D01*
X150200000Y-109824286D01*
X150200000Y-109252857D01*
X150271429Y-109110000D01*
X150414286Y-109038571D01*
X150700000Y-109038571D01*
X150842857Y-109110000D01*
X150914286Y-109252857D01*
X150914286Y-109395714D01*
X150200000Y-109538571D01*
X152200000Y-110038571D02*
X152200000Y-109252857D01*
X152128571Y-109110000D01*
X151985714Y-109038571D01*
X151700000Y-109038571D01*
X151557143Y-109110000D01*
X152200000Y-109967143D02*
X152057143Y-110038571D01*
X151700000Y-110038571D01*
X151557143Y-109967143D01*
X151485714Y-109824286D01*
X151485714Y-109681429D01*
X151557143Y-109538571D01*
X151700000Y-109467143D01*
X152057143Y-109467143D01*
X152200000Y-109395714D01*
X140057143Y-112438571D02*
X140057143Y-110938571D01*
X140628571Y-110938571D01*
X140771429Y-111010000D01*
X140842857Y-111081429D01*
X140914286Y-111224286D01*
X140914286Y-111438571D01*
X140842857Y-111581429D01*
X140771429Y-111652857D01*
X140628571Y-111724286D01*
X140057143Y-111724286D01*
X141557143Y-111652857D02*
X142057143Y-111652857D01*
X142271429Y-112438571D02*
X141557143Y-112438571D01*
X141557143Y-110938571D01*
X142271429Y-110938571D01*
X143771429Y-112438571D02*
X143271429Y-111724286D01*
X142914286Y-112438571D02*
X142914286Y-110938571D01*
X143485714Y-110938571D01*
X143628572Y-111010000D01*
X143700000Y-111081429D01*
X143771429Y-111224286D01*
X143771429Y-111438571D01*
X143700000Y-111581429D01*
X143628572Y-111652857D01*
X143485714Y-111724286D01*
X142914286Y-111724286D01*
X144914286Y-111652857D02*
X144414286Y-111652857D01*
X144414286Y-112438571D02*
X144414286Y-110938571D01*
X145128572Y-110938571D01*
X146842857Y-111867143D02*
X147985714Y-111867143D01*
X149842857Y-112438571D02*
X149842857Y-110938571D01*
X150342857Y-112010000D01*
X150842857Y-110938571D01*
X150842857Y-112438571D01*
X151771429Y-112438571D02*
X151628571Y-112367143D01*
X151557143Y-112295714D01*
X151485714Y-112152857D01*
X151485714Y-111724286D01*
X151557143Y-111581429D01*
X151628571Y-111510000D01*
X151771429Y-111438571D01*
X151985714Y-111438571D01*
X152128571Y-111510000D01*
X152200000Y-111581429D01*
X152271429Y-111724286D01*
X152271429Y-112152857D01*
X152200000Y-112295714D01*
X152128571Y-112367143D01*
X151985714Y-112438571D01*
X151771429Y-112438571D01*
X152700000Y-111438571D02*
X153271429Y-111438571D01*
X152914286Y-110938571D02*
X152914286Y-112224286D01*
X152985714Y-112367143D01*
X153128572Y-112438571D01*
X153271429Y-112438571D01*
X153771429Y-112438571D02*
X153771429Y-110938571D01*
X154414286Y-112438571D02*
X154414286Y-111652857D01*
X154342857Y-111510000D01*
X154200000Y-111438571D01*
X153985715Y-111438571D01*
X153842857Y-111510000D01*
X153771429Y-111581429D01*
X155700000Y-112367143D02*
X155557143Y-112438571D01*
X155271429Y-112438571D01*
X155128572Y-112367143D01*
X155057143Y-112224286D01*
X155057143Y-111652857D01*
X155128572Y-111510000D01*
X155271429Y-111438571D01*
X155557143Y-111438571D01*
X155700000Y-111510000D01*
X155771429Y-111652857D01*
X155771429Y-111795714D01*
X155057143Y-111938571D01*
X156414286Y-112438571D02*
X156414286Y-111438571D01*
X156414286Y-111724286D02*
X156485714Y-111581429D01*
X156557143Y-111510000D01*
X156700000Y-111438571D01*
X156842857Y-111438571D01*
X157342857Y-112438571D02*
X157342857Y-110938571D01*
X157342857Y-111510000D02*
X157485714Y-111438571D01*
X157771428Y-111438571D01*
X157914285Y-111510000D01*
X157985714Y-111581429D01*
X158057143Y-111724286D01*
X158057143Y-112152857D01*
X157985714Y-112295714D01*
X157914285Y-112367143D01*
X157771428Y-112438571D01*
X157485714Y-112438571D01*
X157342857Y-112367143D01*
X158914286Y-112438571D02*
X158771428Y-112367143D01*
X158700000Y-112295714D01*
X158628571Y-112152857D01*
X158628571Y-111724286D01*
X158700000Y-111581429D01*
X158771428Y-111510000D01*
X158914286Y-111438571D01*
X159128571Y-111438571D01*
X159271428Y-111510000D01*
X159342857Y-111581429D01*
X159414286Y-111724286D01*
X159414286Y-112152857D01*
X159342857Y-112295714D01*
X159271428Y-112367143D01*
X159128571Y-112438571D01*
X158914286Y-112438571D01*
X160700000Y-112438571D02*
X160700000Y-111652857D01*
X160628571Y-111510000D01*
X160485714Y-111438571D01*
X160200000Y-111438571D01*
X160057143Y-111510000D01*
X160700000Y-112367143D02*
X160557143Y-112438571D01*
X160200000Y-112438571D01*
X160057143Y-112367143D01*
X159985714Y-112224286D01*
X159985714Y-112081429D01*
X160057143Y-111938571D01*
X160200000Y-111867143D01*
X160557143Y-111867143D01*
X160700000Y-111795714D01*
X161414286Y-112438571D02*
X161414286Y-111438571D01*
X161414286Y-111724286D02*
X161485714Y-111581429D01*
X161557143Y-111510000D01*
X161700000Y-111438571D01*
X161842857Y-111438571D01*
X162985714Y-112438571D02*
X162985714Y-110938571D01*
X162985714Y-112367143D02*
X162842857Y-112438571D01*
X162557143Y-112438571D01*
X162414285Y-112367143D01*
X162342857Y-112295714D01*
X162271428Y-112152857D01*
X162271428Y-111724286D01*
X162342857Y-111581429D01*
X162414285Y-111510000D01*
X162557143Y-111438571D01*
X162842857Y-111438571D01*
X162985714Y-111510000D01*
X165771428Y-110938571D02*
X166271428Y-112438571D01*
X166771428Y-110938571D01*
X168057142Y-112438571D02*
X167199999Y-112438571D01*
X167628571Y-112438571D02*
X167628571Y-110938571D01*
X167485714Y-111152857D01*
X167342856Y-111295714D01*
X167199999Y-111367143D01*
X168699999Y-112295714D02*
X168771427Y-112367143D01*
X168699999Y-112438571D01*
X168628570Y-112367143D01*
X168699999Y-112295714D01*
X168699999Y-112438571D01*
X169699999Y-110938571D02*
X169842856Y-110938571D01*
X169985713Y-111010000D01*
X170057142Y-111081429D01*
X170128571Y-111224286D01*
X170199999Y-111510000D01*
X170199999Y-111867143D01*
X170128571Y-112152857D01*
X170057142Y-112295714D01*
X169985713Y-112367143D01*
X169842856Y-112438571D01*
X169699999Y-112438571D01*
X169557142Y-112367143D01*
X169485713Y-112295714D01*
X169414285Y-112152857D01*
X169342856Y-111867143D01*
X169342856Y-111510000D01*
X169414285Y-111224286D01*
X169485713Y-111081429D01*
X169557142Y-111010000D01*
X169699999Y-110938571D01*
X140057143Y-114838571D02*
X140057143Y-113338571D01*
X140414286Y-113338571D01*
X140628571Y-113410000D01*
X140771429Y-113552857D01*
X140842857Y-113695714D01*
X140914286Y-113981429D01*
X140914286Y-114195714D01*
X140842857Y-114481429D01*
X140771429Y-114624286D01*
X140628571Y-114767143D01*
X140414286Y-114838571D01*
X140057143Y-114838571D01*
X142128571Y-114767143D02*
X141985714Y-114838571D01*
X141700000Y-114838571D01*
X141557143Y-114767143D01*
X141485714Y-114624286D01*
X141485714Y-114052857D01*
X141557143Y-113910000D01*
X141700000Y-113838571D01*
X141985714Y-113838571D01*
X142128571Y-113910000D01*
X142200000Y-114052857D01*
X142200000Y-114195714D01*
X141485714Y-114338571D01*
X142771428Y-114767143D02*
X142914285Y-114838571D01*
X143200000Y-114838571D01*
X143342857Y-114767143D01*
X143414285Y-114624286D01*
X143414285Y-114552857D01*
X143342857Y-114410000D01*
X143200000Y-114338571D01*
X142985714Y-114338571D01*
X142842857Y-114267143D01*
X142771428Y-114124286D01*
X142771428Y-114052857D01*
X142842857Y-113910000D01*
X142985714Y-113838571D01*
X143200000Y-113838571D01*
X143342857Y-113910000D01*
X144057143Y-114838571D02*
X144057143Y-113838571D01*
X144057143Y-113338571D02*
X143985714Y-113410000D01*
X144057143Y-113481429D01*
X144128571Y-113410000D01*
X144057143Y-113338571D01*
X144057143Y-113481429D01*
X145414286Y-113838571D02*
X145414286Y-115052857D01*
X145342857Y-115195714D01*
X145271429Y-115267143D01*
X145128572Y-115338571D01*
X144914286Y-115338571D01*
X144771429Y-115267143D01*
X145414286Y-114767143D02*
X145271429Y-114838571D01*
X144985715Y-114838571D01*
X144842857Y-114767143D01*
X144771429Y-114695714D01*
X144700000Y-114552857D01*
X144700000Y-114124286D01*
X144771429Y-113981429D01*
X144842857Y-113910000D01*
X144985715Y-113838571D01*
X145271429Y-113838571D01*
X145414286Y-113910000D01*
X146128572Y-113838571D02*
X146128572Y-114838571D01*
X146128572Y-113981429D02*
X146200000Y-113910000D01*
X146342858Y-113838571D01*
X146557143Y-113838571D01*
X146700000Y-113910000D01*
X146771429Y-114052857D01*
X146771429Y-114838571D01*
X148057143Y-114767143D02*
X147914286Y-114838571D01*
X147628572Y-114838571D01*
X147485715Y-114767143D01*
X147414286Y-114624286D01*
X147414286Y-114052857D01*
X147485715Y-113910000D01*
X147628572Y-113838571D01*
X147914286Y-113838571D01*
X148057143Y-113910000D01*
X148128572Y-114052857D01*
X148128572Y-114195714D01*
X147414286Y-114338571D01*
X149414286Y-114838571D02*
X149414286Y-113338571D01*
X149414286Y-114767143D02*
X149271429Y-114838571D01*
X148985715Y-114838571D01*
X148842857Y-114767143D01*
X148771429Y-114695714D01*
X148700000Y-114552857D01*
X148700000Y-114124286D01*
X148771429Y-113981429D01*
X148842857Y-113910000D01*
X148985715Y-113838571D01*
X149271429Y-113838571D01*
X149414286Y-113910000D01*
X151271429Y-114838571D02*
X151271429Y-113338571D01*
X151271429Y-113910000D02*
X151414286Y-113838571D01*
X151700000Y-113838571D01*
X151842857Y-113910000D01*
X151914286Y-113981429D01*
X151985715Y-114124286D01*
X151985715Y-114552857D01*
X151914286Y-114695714D01*
X151842857Y-114767143D01*
X151700000Y-114838571D01*
X151414286Y-114838571D01*
X151271429Y-114767143D01*
X152485715Y-113838571D02*
X152842858Y-114838571D01*
X153200000Y-113838571D02*
X152842858Y-114838571D01*
X152700000Y-115195714D01*
X152628572Y-115267143D01*
X152485715Y-115338571D01*
X153771429Y-114695714D02*
X153842857Y-114767143D01*
X153771429Y-114838571D01*
X153700000Y-114767143D01*
X153771429Y-114695714D01*
X153771429Y-114838571D01*
X153771429Y-113910000D02*
X153842857Y-113981429D01*
X153771429Y-114052857D01*
X153700000Y-113981429D01*
X153771429Y-113910000D01*
X153771429Y-114052857D01*
X155557143Y-114767143D02*
X155771429Y-114838571D01*
X156128572Y-114838571D01*
X156271429Y-114767143D01*
X156342858Y-114695714D01*
X156414286Y-114552857D01*
X156414286Y-114410000D01*
X156342858Y-114267143D01*
X156271429Y-114195714D01*
X156128572Y-114124286D01*
X155842858Y-114052857D01*
X155700000Y-113981429D01*
X155628572Y-113910000D01*
X155557143Y-113767143D01*
X155557143Y-113624286D01*
X155628572Y-113481429D01*
X155700000Y-113410000D01*
X155842858Y-113338571D01*
X156200000Y-113338571D01*
X156414286Y-113410000D01*
X157271429Y-114838571D02*
X157128571Y-114767143D01*
X157057143Y-114624286D01*
X157057143Y-113338571D01*
X158414285Y-114767143D02*
X158271428Y-114838571D01*
X157985714Y-114838571D01*
X157842857Y-114767143D01*
X157771428Y-114624286D01*
X157771428Y-114052857D01*
X157842857Y-113910000D01*
X157985714Y-113838571D01*
X158271428Y-113838571D01*
X158414285Y-113910000D01*
X158485714Y-114052857D01*
X158485714Y-114195714D01*
X157771428Y-114338571D01*
X158914285Y-113838571D02*
X159485714Y-113838571D01*
X159128571Y-113338571D02*
X159128571Y-114624286D01*
X159199999Y-114767143D01*
X159342857Y-114838571D01*
X159485714Y-114838571D01*
X159771428Y-113838571D02*
X160342857Y-113838571D01*
X159985714Y-113338571D02*
X159985714Y-114624286D01*
X160057142Y-114767143D01*
X160200000Y-114838571D01*
X160342857Y-114838571D01*
X161414285Y-114767143D02*
X161271428Y-114838571D01*
X160985714Y-114838571D01*
X160842857Y-114767143D01*
X160771428Y-114624286D01*
X160771428Y-114052857D01*
X160842857Y-113910000D01*
X160985714Y-113838571D01*
X161271428Y-113838571D01*
X161414285Y-113910000D01*
X161485714Y-114052857D01*
X161485714Y-114195714D01*
X160771428Y-114338571D01*
X162128571Y-113838571D02*
X162128571Y-114838571D01*
X162128571Y-113981429D02*
X162199999Y-113910000D01*
X162342857Y-113838571D01*
X162557142Y-113838571D01*
X162699999Y-113910000D01*
X162771428Y-114052857D01*
X162771428Y-114838571D01*
D11*
X125222000Y-91440000D02*
X126746000Y-91440000D01*
X125222000Y-83312000D02*
X126746000Y-83312000D01*
X190500000Y-118872000D02*
X191008000Y-118872000D01*
X195072000Y-69342000D02*
X195072000Y-69850000D01*
X194818000Y-69596000D02*
X195326000Y-69596000D01*
X191516000Y-100838000D02*
X191516000Y-101346000D01*
X191516000Y-101092000D02*
X191516000Y-100838000D01*
X191770000Y-101092000D02*
X191516000Y-101092000D01*
X191262000Y-101092000D02*
X191770000Y-101092000D01*
X191516000Y-101092000D02*
X191262000Y-101092000D01*
D13*
X121467619Y-66325715D02*
X121467619Y-65754286D01*
X121467619Y-66040000D02*
X122467619Y-66040000D01*
X122324762Y-65944762D01*
X122229524Y-65849524D01*
X122181905Y-65754286D01*
X121467619Y-101250715D02*
X121467619Y-100679286D01*
X121467619Y-100965000D02*
X122467619Y-100965000D01*
X122324762Y-100869762D01*
X122229524Y-100774524D01*
X122181905Y-100679286D01*
X201112381Y-119094285D02*
X201112381Y-119665714D01*
X201112381Y-119380000D02*
X200112381Y-119380000D01*
X200255238Y-119475238D01*
X200350476Y-119570476D01*
X200398095Y-119665714D01*
X201112381Y-95599285D02*
X201112381Y-96170714D01*
X201112381Y-95885000D02*
X200112381Y-95885000D01*
X200255238Y-95980238D01*
X200350476Y-96075476D01*
X200398095Y-96170714D01*
D12*
X200910000Y-114331428D02*
X200910000Y-113617142D01*
X201338571Y-114474285D02*
X199838571Y-113974285D01*
X201338571Y-113474285D01*
X199838571Y-112974285D02*
X201052857Y-112974285D01*
X201195714Y-112902857D01*
X201267143Y-112831428D01*
X201338571Y-112688571D01*
X201338571Y-112402857D01*
X201267143Y-112259999D01*
X201195714Y-112188571D01*
X201052857Y-112117142D01*
X199838571Y-112117142D01*
X199838571Y-111545713D02*
X201338571Y-110545713D01*
X199838571Y-110545713D02*
X201338571Y-111545713D01*
X199838571Y-109688571D02*
X199838571Y-109545714D01*
X199910000Y-109402857D01*
X199981429Y-109331428D01*
X200124286Y-109259999D01*
X200410000Y-109188571D01*
X200767143Y-109188571D01*
X201052857Y-109259999D01*
X201195714Y-109331428D01*
X201267143Y-109402857D01*
X201338571Y-109545714D01*
X201338571Y-109688571D01*
X201267143Y-109831428D01*
X201195714Y-109902857D01*
X201052857Y-109974285D01*
X200767143Y-110045714D01*
X200410000Y-110045714D01*
X200124286Y-109974285D01*
X199981429Y-109902857D01*
X199910000Y-109831428D01*
X199838571Y-109688571D01*
X199330571Y-67948286D02*
X199330571Y-67091143D01*
X200830571Y-67519714D02*
X199330571Y-67519714D01*
X200830571Y-66591143D02*
X199330571Y-66591143D01*
X200044857Y-66591143D02*
X200044857Y-65734000D01*
X200830571Y-65734000D02*
X199330571Y-65734000D01*
X200830571Y-64162571D02*
X200116286Y-64662571D01*
X200830571Y-65019714D02*
X199330571Y-65019714D01*
X199330571Y-64448286D01*
X199402000Y-64305428D01*
X199473429Y-64234000D01*
X199616286Y-64162571D01*
X199830571Y-64162571D01*
X199973429Y-64234000D01*
X200044857Y-64305428D01*
X200116286Y-64448286D01*
X200116286Y-65019714D01*
X199330571Y-63519714D02*
X200544857Y-63519714D01*
X200687714Y-63448286D01*
X200759143Y-63376857D01*
X200830571Y-63234000D01*
X200830571Y-62948286D01*
X200759143Y-62805428D01*
X200687714Y-62734000D01*
X200544857Y-62662571D01*
X199330571Y-62662571D01*
X200759143Y-62019714D02*
X200830571Y-61805428D01*
X200830571Y-61448285D01*
X200759143Y-61305428D01*
X200687714Y-61233999D01*
X200544857Y-61162571D01*
X200402000Y-61162571D01*
X200259143Y-61233999D01*
X200187714Y-61305428D01*
X200116286Y-61448285D01*
X200044857Y-61733999D01*
X199973429Y-61876857D01*
X199902000Y-61948285D01*
X199759143Y-62019714D01*
X199616286Y-62019714D01*
X199473429Y-61948285D01*
X199402000Y-61876857D01*
X199330571Y-61733999D01*
X199330571Y-61376857D01*
X199402000Y-61162571D01*
X199330571Y-60734000D02*
X199330571Y-59876857D01*
X200830571Y-60305428D02*
X199330571Y-60305428D01*
X200044857Y-59376857D02*
X200044857Y-58876857D01*
X200830571Y-58662571D02*
X200830571Y-59376857D01*
X199330571Y-59376857D01*
X199330571Y-58662571D01*
X200830571Y-57162571D02*
X200116286Y-57662571D01*
X200830571Y-58019714D02*
X199330571Y-58019714D01*
X199330571Y-57448286D01*
X199402000Y-57305428D01*
X199473429Y-57234000D01*
X199616286Y-57162571D01*
X199830571Y-57162571D01*
X199973429Y-57234000D01*
X200044857Y-57305428D01*
X200116286Y-57448286D01*
X200116286Y-58019714D01*
D13*
X196278476Y-110640762D02*
X196421333Y-110688381D01*
X196659429Y-110688381D01*
X196754667Y-110640762D01*
X196802286Y-110593143D01*
X196849905Y-110497905D01*
X196849905Y-110402667D01*
X196802286Y-110307429D01*
X196754667Y-110259810D01*
X196659429Y-110212190D01*
X196468952Y-110164571D01*
X196373714Y-110116952D01*
X196326095Y-110069333D01*
X196278476Y-109974095D01*
X196278476Y-109878857D01*
X196326095Y-109783619D01*
X196373714Y-109736000D01*
X196468952Y-109688381D01*
X196707048Y-109688381D01*
X196849905Y-109736000D01*
X197468952Y-110212190D02*
X197468952Y-110688381D01*
X197135619Y-109688381D02*
X197468952Y-110212190D01*
X197802286Y-109688381D01*
X198088000Y-110640762D02*
X198230857Y-110688381D01*
X198468953Y-110688381D01*
X198564191Y-110640762D01*
X198611810Y-110593143D01*
X198659429Y-110497905D01*
X198659429Y-110402667D01*
X198611810Y-110307429D01*
X198564191Y-110259810D01*
X198468953Y-110212190D01*
X198278476Y-110164571D01*
X198183238Y-110116952D01*
X198135619Y-110069333D01*
X198088000Y-109974095D01*
X198088000Y-109878857D01*
X198135619Y-109783619D01*
X198183238Y-109736000D01*
X198278476Y-109688381D01*
X198516572Y-109688381D01*
X198659429Y-109736000D01*
X196897524Y-108053143D02*
X196849905Y-108100762D01*
X196707048Y-108148381D01*
X196611810Y-108148381D01*
X196468952Y-108100762D01*
X196373714Y-108005524D01*
X196326095Y-107910286D01*
X196278476Y-107719810D01*
X196278476Y-107576952D01*
X196326095Y-107386476D01*
X196373714Y-107291238D01*
X196468952Y-107196000D01*
X196611810Y-107148381D01*
X196707048Y-107148381D01*
X196849905Y-107196000D01*
X196897524Y-107243619D01*
X197516571Y-107148381D02*
X197707048Y-107148381D01*
X197802286Y-107196000D01*
X197897524Y-107291238D01*
X197945143Y-107481714D01*
X197945143Y-107815048D01*
X197897524Y-108005524D01*
X197802286Y-108100762D01*
X197707048Y-108148381D01*
X197516571Y-108148381D01*
X197421333Y-108100762D01*
X197326095Y-108005524D01*
X197278476Y-107815048D01*
X197278476Y-107481714D01*
X197326095Y-107291238D01*
X197421333Y-107196000D01*
X197516571Y-107148381D01*
X198373714Y-108148381D02*
X198373714Y-107148381D01*
X198707048Y-107862667D01*
X199040381Y-107148381D01*
X199040381Y-108148381D01*
X196230857Y-104608381D02*
X196849905Y-104608381D01*
X196516571Y-104989333D01*
X196659429Y-104989333D01*
X196754667Y-105036952D01*
X196802286Y-105084571D01*
X196849905Y-105179810D01*
X196849905Y-105417905D01*
X196802286Y-105513143D01*
X196754667Y-105560762D01*
X196659429Y-105608381D01*
X196373714Y-105608381D01*
X196278476Y-105560762D01*
X196230857Y-105513143D01*
X197278476Y-105513143D02*
X197326095Y-105560762D01*
X197278476Y-105608381D01*
X197230857Y-105560762D01*
X197278476Y-105513143D01*
X197278476Y-105608381D01*
X197659428Y-104608381D02*
X198278476Y-104608381D01*
X197945142Y-104989333D01*
X198088000Y-104989333D01*
X198183238Y-105036952D01*
X198230857Y-105084571D01*
X198278476Y-105179810D01*
X198278476Y-105417905D01*
X198230857Y-105513143D01*
X198183238Y-105560762D01*
X198088000Y-105608381D01*
X197802285Y-105608381D01*
X197707047Y-105560762D01*
X197659428Y-105513143D01*
X198564190Y-104608381D02*
X198897523Y-105608381D01*
X199230857Y-104608381D01*
X196802286Y-102068381D02*
X196326095Y-102068381D01*
X196278476Y-102544571D01*
X196326095Y-102496952D01*
X196421333Y-102449333D01*
X196659429Y-102449333D01*
X196754667Y-102496952D01*
X196802286Y-102544571D01*
X196849905Y-102639810D01*
X196849905Y-102877905D01*
X196802286Y-102973143D01*
X196754667Y-103020762D01*
X196659429Y-103068381D01*
X196421333Y-103068381D01*
X196326095Y-103020762D01*
X196278476Y-102973143D01*
X197135619Y-102068381D02*
X197468952Y-103068381D01*
X197802286Y-102068381D01*
D14*
X124325000Y-99630596D02*
X124372619Y-99541310D01*
X124372619Y-99398453D01*
X124325000Y-99249643D01*
X124229762Y-99142500D01*
X124134524Y-99082977D01*
X123944048Y-99011548D01*
X123801190Y-98993691D01*
X123610714Y-99017500D01*
X123515476Y-99053215D01*
X123420238Y-99136548D01*
X123372619Y-99273453D01*
X123372619Y-99368691D01*
X123420238Y-99517501D01*
X123467857Y-99571072D01*
X123801190Y-99612739D01*
X123801190Y-99422263D01*
X123372619Y-99987738D02*
X124372619Y-100112738D01*
X123372619Y-100559167D01*
X124372619Y-100684167D01*
X123372619Y-101035357D02*
X124372619Y-101160357D01*
X124372619Y-101398452D01*
X124325000Y-101535358D01*
X124229762Y-101618691D01*
X124134524Y-101654406D01*
X123944048Y-101678215D01*
X123801190Y-101660358D01*
X123610714Y-101588929D01*
X123515476Y-101529406D01*
X123420238Y-101422263D01*
X123372619Y-101273452D01*
X123372619Y-101035357D01*
X124372619Y-105922976D02*
X124372619Y-105446785D01*
X123896429Y-105339643D01*
X123944048Y-105393214D01*
X123991667Y-105494404D01*
X123991667Y-105732500D01*
X123944048Y-105821786D01*
X123896429Y-105863453D01*
X123801190Y-105899167D01*
X123563095Y-105869405D01*
X123467857Y-105809881D01*
X123420238Y-105756310D01*
X123372619Y-105655119D01*
X123372619Y-105417023D01*
X123420238Y-105327738D01*
X123467857Y-105286071D01*
X124372619Y-106256309D02*
X123372619Y-106464642D01*
X124372619Y-106922976D01*
D12*
X116161429Y-91650715D02*
X117661429Y-91650715D01*
X117661429Y-92222143D01*
X117590000Y-92365001D01*
X117518571Y-92436429D01*
X117375714Y-92507858D01*
X117161429Y-92507858D01*
X117018571Y-92436429D01*
X116947143Y-92365001D01*
X116875714Y-92222143D01*
X116875714Y-91650715D01*
X116161429Y-93365001D02*
X116232857Y-93222143D01*
X116304286Y-93150715D01*
X116447143Y-93079286D01*
X116875714Y-93079286D01*
X117018571Y-93150715D01*
X117090000Y-93222143D01*
X117161429Y-93365001D01*
X117161429Y-93579286D01*
X117090000Y-93722143D01*
X117018571Y-93793572D01*
X116875714Y-93865001D01*
X116447143Y-93865001D01*
X116304286Y-93793572D01*
X116232857Y-93722143D01*
X116161429Y-93579286D01*
X116161429Y-93365001D01*
X117161429Y-94365001D02*
X116161429Y-94650715D01*
X116875714Y-94936429D01*
X116161429Y-95222144D01*
X117161429Y-95507858D01*
X116232857Y-96650715D02*
X116161429Y-96507858D01*
X116161429Y-96222144D01*
X116232857Y-96079287D01*
X116375714Y-96007858D01*
X116947143Y-96007858D01*
X117090000Y-96079287D01*
X117161429Y-96222144D01*
X117161429Y-96507858D01*
X117090000Y-96650715D01*
X116947143Y-96722144D01*
X116804286Y-96722144D01*
X116661429Y-96007858D01*
X116161429Y-97365001D02*
X117161429Y-97365001D01*
X116875714Y-97365001D02*
X117018571Y-97436429D01*
X117090000Y-97507858D01*
X117161429Y-97650715D01*
X117161429Y-97793572D01*
X116304286Y-85181429D02*
X116232857Y-85110000D01*
X116161429Y-84895714D01*
X116161429Y-84752857D01*
X116232857Y-84538572D01*
X116375714Y-84395714D01*
X116518571Y-84324286D01*
X116804286Y-84252857D01*
X117018571Y-84252857D01*
X117304286Y-84324286D01*
X117447143Y-84395714D01*
X117590000Y-84538572D01*
X117661429Y-84752857D01*
X117661429Y-84895714D01*
X117590000Y-85110000D01*
X117518571Y-85181429D01*
X117661429Y-86110000D02*
X117661429Y-86395714D01*
X117590000Y-86538572D01*
X117447143Y-86681429D01*
X117161429Y-86752857D01*
X116661429Y-86752857D01*
X116375714Y-86681429D01*
X116232857Y-86538572D01*
X116161429Y-86395714D01*
X116161429Y-86110000D01*
X116232857Y-85967143D01*
X116375714Y-85824286D01*
X116661429Y-85752857D01*
X117161429Y-85752857D01*
X117447143Y-85824286D01*
X117590000Y-85967143D01*
X117661429Y-86110000D01*
X116161429Y-87395715D02*
X117661429Y-87395715D01*
X116590000Y-87895715D01*
X117661429Y-88395715D01*
X116161429Y-88395715D01*
D15*
X125476000Y-105664000D02*
X128524000Y-105664000D01*
X128524000Y-101981000D02*
X128524000Y-100076000D01*
X128524000Y-100076000D02*
X125476000Y-100076000D01*
X125476000Y-100076000D02*
X125476000Y-101981000D01*
X125476000Y-103632000D02*
X125476000Y-105664000D01*
X125476000Y-105464000D02*
X128524000Y-105464000D01*
X128524000Y-105664000D02*
X128524000Y-103632000D01*
X129667000Y-105410000D02*
X129667000Y-105664000D01*
X129667000Y-105664000D02*
X131953000Y-105664000D01*
X131953000Y-105664000D02*
X131953000Y-105410000D01*
X129667000Y-105410000D02*
X131953000Y-105410000D01*
X131953000Y-105410000D02*
X131953000Y-103759000D01*
X129667000Y-101981000D02*
X129667000Y-100330000D01*
X129667000Y-100330000D02*
X131953000Y-100330000D01*
X131953000Y-100330000D02*
X131953000Y-101981000D01*
X129667000Y-103759000D02*
X129667000Y-105410000D01*
X136144000Y-108966000D02*
X133096000Y-108966000D01*
X133096000Y-112649000D02*
X133096000Y-114554000D01*
X133096000Y-114554000D02*
X136144000Y-114554000D01*
X136144000Y-114554000D02*
X136144000Y-112649000D01*
X136144000Y-110998000D02*
X136144000Y-108966000D01*
X136144000Y-109166000D02*
X133096000Y-109166000D01*
X133096000Y-108966000D02*
X133096000Y-110998000D01*
X196695060Y-88999060D02*
X196496940Y-88999060D01*
X196496940Y-88999060D02*
X196496940Y-88800940D01*
X196695060Y-88800940D02*
X196496940Y-88800940D01*
X196695060Y-88999060D02*
X196695060Y-88800940D01*
X196146420Y-89598500D02*
X195798440Y-89598500D01*
X195798440Y-89598500D02*
X195798440Y-89349580D01*
X196146420Y-89349580D02*
X195798440Y-89349580D01*
X196146420Y-89598500D02*
X196146420Y-89349580D01*
X195798440Y-89598500D02*
X195696840Y-89598500D01*
X195696840Y-89598500D02*
X195696840Y-88402160D01*
X195798440Y-88402160D02*
X195696840Y-88402160D01*
X195798440Y-89598500D02*
X195798440Y-88402160D01*
X195798440Y-88351360D02*
X195696840Y-88351360D01*
X195696840Y-88351360D02*
X195696840Y-88201500D01*
X195798440Y-88201500D02*
X195696840Y-88201500D01*
X195798440Y-88351360D02*
X195798440Y-88201500D01*
X197495160Y-89598500D02*
X197393560Y-89598500D01*
X197393560Y-89598500D02*
X197393560Y-88402160D01*
X197495160Y-88402160D02*
X197393560Y-88402160D01*
X197495160Y-89598500D02*
X197495160Y-88402160D01*
X197495160Y-88351360D02*
X197393560Y-88351360D01*
X197393560Y-88351360D02*
X197393560Y-88201500D01*
X197495160Y-88201500D02*
X197393560Y-88201500D01*
X197495160Y-88351360D02*
X197495160Y-88201500D01*
X196146420Y-89598500D02*
X195996560Y-89598500D01*
X195996560Y-89598500D02*
X195996560Y-89349580D01*
X196146420Y-89349580D02*
X195996560Y-89349580D01*
X196146420Y-89598500D02*
X196146420Y-89349580D01*
X195046600Y-89649300D02*
X198145400Y-89649300D01*
X198145400Y-89649300D02*
X198145400Y-88150700D01*
X198145400Y-88150700D02*
X195046600Y-88150700D01*
X195046600Y-88150700D02*
X195046600Y-89649300D01*
X197143262Y-89399354D02*
G75*
G02X196047360Y-89397840I-547262J499354D01*
G01*
X197144133Y-88401602D02*
G75*
G02X197144640Y-89397840I-548133J-498398D01*
G01*
X196048738Y-88400646D02*
G75*
G02X197144640Y-88402160I547262J-499354D01*
G01*
X196047867Y-89398398D02*
G75*
G02X196047360Y-88402160I548133J498398D01*
G01*
X196695060Y-86459060D02*
X196496940Y-86459060D01*
X196496940Y-86459060D02*
X196496940Y-86260940D01*
X196695060Y-86260940D02*
X196496940Y-86260940D01*
X196695060Y-86459060D02*
X196695060Y-86260940D01*
X196146420Y-87058500D02*
X195798440Y-87058500D01*
X195798440Y-87058500D02*
X195798440Y-86809580D01*
X196146420Y-86809580D02*
X195798440Y-86809580D01*
X196146420Y-87058500D02*
X196146420Y-86809580D01*
X195798440Y-87058500D02*
X195696840Y-87058500D01*
X195696840Y-87058500D02*
X195696840Y-85862160D01*
X195798440Y-85862160D02*
X195696840Y-85862160D01*
X195798440Y-87058500D02*
X195798440Y-85862160D01*
X195798440Y-85811360D02*
X195696840Y-85811360D01*
X195696840Y-85811360D02*
X195696840Y-85661500D01*
X195798440Y-85661500D02*
X195696840Y-85661500D01*
X195798440Y-85811360D02*
X195798440Y-85661500D01*
X197495160Y-87058500D02*
X197393560Y-87058500D01*
X197393560Y-87058500D02*
X197393560Y-85862160D01*
X197495160Y-85862160D02*
X197393560Y-85862160D01*
X197495160Y-87058500D02*
X197495160Y-85862160D01*
X197495160Y-85811360D02*
X197393560Y-85811360D01*
X197393560Y-85811360D02*
X197393560Y-85661500D01*
X197495160Y-85661500D02*
X197393560Y-85661500D01*
X197495160Y-85811360D02*
X197495160Y-85661500D01*
X196146420Y-87058500D02*
X195996560Y-87058500D01*
X195996560Y-87058500D02*
X195996560Y-86809580D01*
X196146420Y-86809580D02*
X195996560Y-86809580D01*
X196146420Y-87058500D02*
X196146420Y-86809580D01*
X195046600Y-87109300D02*
X198145400Y-87109300D01*
X198145400Y-87109300D02*
X198145400Y-85610700D01*
X198145400Y-85610700D02*
X195046600Y-85610700D01*
X195046600Y-85610700D02*
X195046600Y-87109300D01*
X197143262Y-86859354D02*
G75*
G02X196047360Y-86857840I-547262J499354D01*
G01*
X197144133Y-85861602D02*
G75*
G02X197144640Y-86857840I-548133J-498398D01*
G01*
X196048738Y-85860646D02*
G75*
G02X197144640Y-85862160I547262J-499354D01*
G01*
X196047867Y-86858398D02*
G75*
G02X196047360Y-85862160I548133J498398D01*
G01*
X196695060Y-83919060D02*
X196496940Y-83919060D01*
X196496940Y-83919060D02*
X196496940Y-83720940D01*
X196695060Y-83720940D02*
X196496940Y-83720940D01*
X196695060Y-83919060D02*
X196695060Y-83720940D01*
X196146420Y-84518500D02*
X195798440Y-84518500D01*
X195798440Y-84518500D02*
X195798440Y-84269580D01*
X196146420Y-84269580D02*
X195798440Y-84269580D01*
X196146420Y-84518500D02*
X196146420Y-84269580D01*
X195798440Y-84518500D02*
X195696840Y-84518500D01*
X195696840Y-84518500D02*
X195696840Y-83322160D01*
X195798440Y-83322160D02*
X195696840Y-83322160D01*
X195798440Y-84518500D02*
X195798440Y-83322160D01*
X195798440Y-83271360D02*
X195696840Y-83271360D01*
X195696840Y-83271360D02*
X195696840Y-83121500D01*
X195798440Y-83121500D02*
X195696840Y-83121500D01*
X195798440Y-83271360D02*
X195798440Y-83121500D01*
X197495160Y-84518500D02*
X197393560Y-84518500D01*
X197393560Y-84518500D02*
X197393560Y-83322160D01*
X197495160Y-83322160D02*
X197393560Y-83322160D01*
X197495160Y-84518500D02*
X197495160Y-83322160D01*
X197495160Y-83271360D02*
X197393560Y-83271360D01*
X197393560Y-83271360D02*
X197393560Y-83121500D01*
X197495160Y-83121500D02*
X197393560Y-83121500D01*
X197495160Y-83271360D02*
X197495160Y-83121500D01*
X196146420Y-84518500D02*
X195996560Y-84518500D01*
X195996560Y-84518500D02*
X195996560Y-84269580D01*
X196146420Y-84269580D02*
X195996560Y-84269580D01*
X196146420Y-84518500D02*
X196146420Y-84269580D01*
X195046600Y-84569300D02*
X198145400Y-84569300D01*
X198145400Y-84569300D02*
X198145400Y-83070700D01*
X198145400Y-83070700D02*
X195046600Y-83070700D01*
X195046600Y-83070700D02*
X195046600Y-84569300D01*
X197143262Y-84319354D02*
G75*
G02X196047360Y-84317840I-547262J499354D01*
G01*
X197144133Y-83321602D02*
G75*
G02X197144640Y-84317840I-548133J-498398D01*
G01*
X196048738Y-83320646D02*
G75*
G02X197144640Y-83322160I547262J-499354D01*
G01*
X196047867Y-84318398D02*
G75*
G02X196047360Y-83322160I548133J498398D01*
G01*
X196695060Y-81379060D02*
X196496940Y-81379060D01*
X196496940Y-81379060D02*
X196496940Y-81180940D01*
X196695060Y-81180940D02*
X196496940Y-81180940D01*
X196695060Y-81379060D02*
X196695060Y-81180940D01*
X196146420Y-81978500D02*
X195798440Y-81978500D01*
X195798440Y-81978500D02*
X195798440Y-81729580D01*
X196146420Y-81729580D02*
X195798440Y-81729580D01*
X196146420Y-81978500D02*
X196146420Y-81729580D01*
X195798440Y-81978500D02*
X195696840Y-81978500D01*
X195696840Y-81978500D02*
X195696840Y-80782160D01*
X195798440Y-80782160D02*
X195696840Y-80782160D01*
X195798440Y-81978500D02*
X195798440Y-80782160D01*
X195798440Y-80731360D02*
X195696840Y-80731360D01*
X195696840Y-80731360D02*
X195696840Y-80581500D01*
X195798440Y-80581500D02*
X195696840Y-80581500D01*
X195798440Y-80731360D02*
X195798440Y-80581500D01*
X197495160Y-81978500D02*
X197393560Y-81978500D01*
X197393560Y-81978500D02*
X197393560Y-80782160D01*
X197495160Y-80782160D02*
X197393560Y-80782160D01*
X197495160Y-81978500D02*
X197495160Y-80782160D01*
X197495160Y-80731360D02*
X197393560Y-80731360D01*
X197393560Y-80731360D02*
X197393560Y-80581500D01*
X197495160Y-80581500D02*
X197393560Y-80581500D01*
X197495160Y-80731360D02*
X197495160Y-80581500D01*
X196146420Y-81978500D02*
X195996560Y-81978500D01*
X195996560Y-81978500D02*
X195996560Y-81729580D01*
X196146420Y-81729580D02*
X195996560Y-81729580D01*
X196146420Y-81978500D02*
X196146420Y-81729580D01*
X195046600Y-82029300D02*
X198145400Y-82029300D01*
X198145400Y-82029300D02*
X198145400Y-80530700D01*
X198145400Y-80530700D02*
X195046600Y-80530700D01*
X195046600Y-80530700D02*
X195046600Y-82029300D01*
X197143262Y-81779354D02*
G75*
G02X196047360Y-81777840I-547262J499354D01*
G01*
X197144133Y-80781602D02*
G75*
G02X197144640Y-81777840I-548133J-498398D01*
G01*
X196048738Y-80780646D02*
G75*
G02X197144640Y-80782160I547262J-499354D01*
G01*
X196047867Y-81778398D02*
G75*
G02X196047360Y-80782160I548133J498398D01*
G01*
X196695060Y-78839060D02*
X196496940Y-78839060D01*
X196496940Y-78839060D02*
X196496940Y-78640940D01*
X196695060Y-78640940D02*
X196496940Y-78640940D01*
X196695060Y-78839060D02*
X196695060Y-78640940D01*
X196146420Y-79438500D02*
X195798440Y-79438500D01*
X195798440Y-79438500D02*
X195798440Y-79189580D01*
X196146420Y-79189580D02*
X195798440Y-79189580D01*
X196146420Y-79438500D02*
X196146420Y-79189580D01*
X195798440Y-79438500D02*
X195696840Y-79438500D01*
X195696840Y-79438500D02*
X195696840Y-78242160D01*
X195798440Y-78242160D02*
X195696840Y-78242160D01*
X195798440Y-79438500D02*
X195798440Y-78242160D01*
X195798440Y-78191360D02*
X195696840Y-78191360D01*
X195696840Y-78191360D02*
X195696840Y-78041500D01*
X195798440Y-78041500D02*
X195696840Y-78041500D01*
X195798440Y-78191360D02*
X195798440Y-78041500D01*
X197495160Y-79438500D02*
X197393560Y-79438500D01*
X197393560Y-79438500D02*
X197393560Y-78242160D01*
X197495160Y-78242160D02*
X197393560Y-78242160D01*
X197495160Y-79438500D02*
X197495160Y-78242160D01*
X197495160Y-78191360D02*
X197393560Y-78191360D01*
X197393560Y-78191360D02*
X197393560Y-78041500D01*
X197495160Y-78041500D02*
X197393560Y-78041500D01*
X197495160Y-78191360D02*
X197495160Y-78041500D01*
X196146420Y-79438500D02*
X195996560Y-79438500D01*
X195996560Y-79438500D02*
X195996560Y-79189580D01*
X196146420Y-79189580D02*
X195996560Y-79189580D01*
X196146420Y-79438500D02*
X196146420Y-79189580D01*
X195046600Y-79489300D02*
X198145400Y-79489300D01*
X198145400Y-79489300D02*
X198145400Y-77990700D01*
X198145400Y-77990700D02*
X195046600Y-77990700D01*
X195046600Y-77990700D02*
X195046600Y-79489300D01*
X197143262Y-79239354D02*
G75*
G02X196047360Y-79237840I-547262J499354D01*
G01*
X197144133Y-78241602D02*
G75*
G02X197144640Y-79237840I-548133J-498398D01*
G01*
X196048738Y-78240646D02*
G75*
G02X197144640Y-78242160I547262J-499354D01*
G01*
X196047867Y-79238398D02*
G75*
G02X196047360Y-78242160I548133J498398D01*
G01*
X196695060Y-76299060D02*
X196496940Y-76299060D01*
X196496940Y-76299060D02*
X196496940Y-76100940D01*
X196695060Y-76100940D02*
X196496940Y-76100940D01*
X196695060Y-76299060D02*
X196695060Y-76100940D01*
X196146420Y-76898500D02*
X195798440Y-76898500D01*
X195798440Y-76898500D02*
X195798440Y-76649580D01*
X196146420Y-76649580D02*
X195798440Y-76649580D01*
X196146420Y-76898500D02*
X196146420Y-76649580D01*
X195798440Y-76898500D02*
X195696840Y-76898500D01*
X195696840Y-76898500D02*
X195696840Y-75702160D01*
X195798440Y-75702160D02*
X195696840Y-75702160D01*
X195798440Y-76898500D02*
X195798440Y-75702160D01*
X195798440Y-75651360D02*
X195696840Y-75651360D01*
X195696840Y-75651360D02*
X195696840Y-75501500D01*
X195798440Y-75501500D02*
X195696840Y-75501500D01*
X195798440Y-75651360D02*
X195798440Y-75501500D01*
X197495160Y-76898500D02*
X197393560Y-76898500D01*
X197393560Y-76898500D02*
X197393560Y-75702160D01*
X197495160Y-75702160D02*
X197393560Y-75702160D01*
X197495160Y-76898500D02*
X197495160Y-75702160D01*
X197495160Y-75651360D02*
X197393560Y-75651360D01*
X197393560Y-75651360D02*
X197393560Y-75501500D01*
X197495160Y-75501500D02*
X197393560Y-75501500D01*
X197495160Y-75651360D02*
X197495160Y-75501500D01*
X196146420Y-76898500D02*
X195996560Y-76898500D01*
X195996560Y-76898500D02*
X195996560Y-76649580D01*
X196146420Y-76649580D02*
X195996560Y-76649580D01*
X196146420Y-76898500D02*
X196146420Y-76649580D01*
X195046600Y-76949300D02*
X198145400Y-76949300D01*
X198145400Y-76949300D02*
X198145400Y-75450700D01*
X198145400Y-75450700D02*
X195046600Y-75450700D01*
X195046600Y-75450700D02*
X195046600Y-76949300D01*
X197143262Y-76699354D02*
G75*
G02X196047360Y-76697840I-547262J499354D01*
G01*
X197144133Y-75701602D02*
G75*
G02X197144640Y-76697840I-548133J-498398D01*
G01*
X196048738Y-75700646D02*
G75*
G02X197144640Y-75702160I547262J-499354D01*
G01*
X196047867Y-76698398D02*
G75*
G02X196047360Y-75702160I548133J498398D01*
G01*
X196695060Y-73759060D02*
X196496940Y-73759060D01*
X196496940Y-73759060D02*
X196496940Y-73560940D01*
X196695060Y-73560940D02*
X196496940Y-73560940D01*
X196695060Y-73759060D02*
X196695060Y-73560940D01*
X196146420Y-74358500D02*
X195798440Y-74358500D01*
X195798440Y-74358500D02*
X195798440Y-74109580D01*
X196146420Y-74109580D02*
X195798440Y-74109580D01*
X196146420Y-74358500D02*
X196146420Y-74109580D01*
X195798440Y-74358500D02*
X195696840Y-74358500D01*
X195696840Y-74358500D02*
X195696840Y-73162160D01*
X195798440Y-73162160D02*
X195696840Y-73162160D01*
X195798440Y-74358500D02*
X195798440Y-73162160D01*
X195798440Y-73111360D02*
X195696840Y-73111360D01*
X195696840Y-73111360D02*
X195696840Y-72961500D01*
X195798440Y-72961500D02*
X195696840Y-72961500D01*
X195798440Y-73111360D02*
X195798440Y-72961500D01*
X197495160Y-74358500D02*
X197393560Y-74358500D01*
X197393560Y-74358500D02*
X197393560Y-73162160D01*
X197495160Y-73162160D02*
X197393560Y-73162160D01*
X197495160Y-74358500D02*
X197495160Y-73162160D01*
X197495160Y-73111360D02*
X197393560Y-73111360D01*
X197393560Y-73111360D02*
X197393560Y-72961500D01*
X197495160Y-72961500D02*
X197393560Y-72961500D01*
X197495160Y-73111360D02*
X197495160Y-72961500D01*
X196146420Y-74358500D02*
X195996560Y-74358500D01*
X195996560Y-74358500D02*
X195996560Y-74109580D01*
X196146420Y-74109580D02*
X195996560Y-74109580D01*
X196146420Y-74358500D02*
X196146420Y-74109580D01*
X195046600Y-74409300D02*
X198145400Y-74409300D01*
X198145400Y-74409300D02*
X198145400Y-72910700D01*
X198145400Y-72910700D02*
X195046600Y-72910700D01*
X195046600Y-72910700D02*
X195046600Y-74409300D01*
X197143262Y-74159354D02*
G75*
G02X196047360Y-74157840I-547262J499354D01*
G01*
X197144133Y-73161602D02*
G75*
G02X197144640Y-74157840I-548133J-498398D01*
G01*
X196048738Y-73160646D02*
G75*
G02X197144640Y-73162160I547262J-499354D01*
G01*
X196047867Y-74158398D02*
G75*
G02X196047360Y-73162160I548133J498398D01*
G01*
X196695060Y-71219060D02*
X196496940Y-71219060D01*
X196496940Y-71219060D02*
X196496940Y-71020940D01*
X196695060Y-71020940D02*
X196496940Y-71020940D01*
X196695060Y-71219060D02*
X196695060Y-71020940D01*
X196146420Y-71818500D02*
X195798440Y-71818500D01*
X195798440Y-71818500D02*
X195798440Y-71569580D01*
X196146420Y-71569580D02*
X195798440Y-71569580D01*
X196146420Y-71818500D02*
X196146420Y-71569580D01*
X195798440Y-71818500D02*
X195696840Y-71818500D01*
X195696840Y-71818500D02*
X195696840Y-70622160D01*
X195798440Y-70622160D02*
X195696840Y-70622160D01*
X195798440Y-71818500D02*
X195798440Y-70622160D01*
X195798440Y-70571360D02*
X195696840Y-70571360D01*
X195696840Y-70571360D02*
X195696840Y-70421500D01*
X195798440Y-70421500D02*
X195696840Y-70421500D01*
X195798440Y-70571360D02*
X195798440Y-70421500D01*
X197495160Y-71818500D02*
X197393560Y-71818500D01*
X197393560Y-71818500D02*
X197393560Y-70622160D01*
X197495160Y-70622160D02*
X197393560Y-70622160D01*
X197495160Y-71818500D02*
X197495160Y-70622160D01*
X197495160Y-70571360D02*
X197393560Y-70571360D01*
X197393560Y-70571360D02*
X197393560Y-70421500D01*
X197495160Y-70421500D02*
X197393560Y-70421500D01*
X197495160Y-70571360D02*
X197495160Y-70421500D01*
X196146420Y-71818500D02*
X195996560Y-71818500D01*
X195996560Y-71818500D02*
X195996560Y-71569580D01*
X196146420Y-71569580D02*
X195996560Y-71569580D01*
X196146420Y-71818500D02*
X196146420Y-71569580D01*
X195046600Y-71869300D02*
X198145400Y-71869300D01*
X198145400Y-71869300D02*
X198145400Y-70370700D01*
X198145400Y-70370700D02*
X195046600Y-70370700D01*
X195046600Y-70370700D02*
X195046600Y-71869300D01*
X197143262Y-71619354D02*
G75*
G02X196047360Y-71617840I-547262J499354D01*
G01*
X197144133Y-70621602D02*
G75*
G02X197144640Y-71617840I-548133J-498398D01*
G01*
X196048738Y-70620646D02*
G75*
G02X197144640Y-70622160I547262J-499354D01*
G01*
X196047867Y-71618398D02*
G75*
G02X196047360Y-70622160I548133J498398D01*
G01*
X193139060Y-102715060D02*
X192940940Y-102715060D01*
X192940940Y-102715060D02*
X192940940Y-102516940D01*
X193139060Y-102516940D02*
X192940940Y-102516940D01*
X193139060Y-102715060D02*
X193139060Y-102516940D01*
X192590420Y-103314500D02*
X192242440Y-103314500D01*
X192242440Y-103314500D02*
X192242440Y-103065580D01*
X192590420Y-103065580D02*
X192242440Y-103065580D01*
X192590420Y-103314500D02*
X192590420Y-103065580D01*
X192242440Y-103314500D02*
X192140840Y-103314500D01*
X192140840Y-103314500D02*
X192140840Y-102118160D01*
X192242440Y-102118160D02*
X192140840Y-102118160D01*
X192242440Y-103314500D02*
X192242440Y-102118160D01*
X192242440Y-102067360D02*
X192140840Y-102067360D01*
X192140840Y-102067360D02*
X192140840Y-101917500D01*
X192242440Y-101917500D02*
X192140840Y-101917500D01*
X192242440Y-102067360D02*
X192242440Y-101917500D01*
X193939160Y-103314500D02*
X193837560Y-103314500D01*
X193837560Y-103314500D02*
X193837560Y-102118160D01*
X193939160Y-102118160D02*
X193837560Y-102118160D01*
X193939160Y-103314500D02*
X193939160Y-102118160D01*
X193939160Y-102067360D02*
X193837560Y-102067360D01*
X193837560Y-102067360D02*
X193837560Y-101917500D01*
X193939160Y-101917500D02*
X193837560Y-101917500D01*
X193939160Y-102067360D02*
X193939160Y-101917500D01*
X192590420Y-103314500D02*
X192440560Y-103314500D01*
X192440560Y-103314500D02*
X192440560Y-103065580D01*
X192590420Y-103065580D02*
X192440560Y-103065580D01*
X192590420Y-103314500D02*
X192590420Y-103065580D01*
X191490600Y-103365300D02*
X194589400Y-103365300D01*
X194589400Y-103365300D02*
X194589400Y-101866700D01*
X194589400Y-101866700D02*
X191490600Y-101866700D01*
X191490600Y-101866700D02*
X191490600Y-103365300D01*
X193587262Y-103115354D02*
G75*
G02X192491360Y-103113840I-547262J499354D01*
G01*
X193588133Y-102117602D02*
G75*
G02X193588640Y-103113840I-548133J-498398D01*
G01*
X192492738Y-102116646D02*
G75*
G02X193588640Y-102118160I547262J-499354D01*
G01*
X192491867Y-103114398D02*
G75*
G02X192491360Y-102118160I548133J498398D01*
G01*
X193139060Y-105255060D02*
X192940940Y-105255060D01*
X192940940Y-105255060D02*
X192940940Y-105056940D01*
X193139060Y-105056940D02*
X192940940Y-105056940D01*
X193139060Y-105255060D02*
X193139060Y-105056940D01*
X192590420Y-105854500D02*
X192242440Y-105854500D01*
X192242440Y-105854500D02*
X192242440Y-105605580D01*
X192590420Y-105605580D02*
X192242440Y-105605580D01*
X192590420Y-105854500D02*
X192590420Y-105605580D01*
X192242440Y-105854500D02*
X192140840Y-105854500D01*
X192140840Y-105854500D02*
X192140840Y-104658160D01*
X192242440Y-104658160D02*
X192140840Y-104658160D01*
X192242440Y-105854500D02*
X192242440Y-104658160D01*
X192242440Y-104607360D02*
X192140840Y-104607360D01*
X192140840Y-104607360D02*
X192140840Y-104457500D01*
X192242440Y-104457500D02*
X192140840Y-104457500D01*
X192242440Y-104607360D02*
X192242440Y-104457500D01*
X193939160Y-105854500D02*
X193837560Y-105854500D01*
X193837560Y-105854500D02*
X193837560Y-104658160D01*
X193939160Y-104658160D02*
X193837560Y-104658160D01*
X193939160Y-105854500D02*
X193939160Y-104658160D01*
X193939160Y-104607360D02*
X193837560Y-104607360D01*
X193837560Y-104607360D02*
X193837560Y-104457500D01*
X193939160Y-104457500D02*
X193837560Y-104457500D01*
X193939160Y-104607360D02*
X193939160Y-104457500D01*
X192590420Y-105854500D02*
X192440560Y-105854500D01*
X192440560Y-105854500D02*
X192440560Y-105605580D01*
X192590420Y-105605580D02*
X192440560Y-105605580D01*
X192590420Y-105854500D02*
X192590420Y-105605580D01*
X191490600Y-105905300D02*
X194589400Y-105905300D01*
X194589400Y-105905300D02*
X194589400Y-104406700D01*
X194589400Y-104406700D02*
X191490600Y-104406700D01*
X191490600Y-104406700D02*
X191490600Y-105905300D01*
X193587262Y-105655354D02*
G75*
G02X192491360Y-105653840I-547262J499354D01*
G01*
X193588133Y-104657602D02*
G75*
G02X193588640Y-105653840I-548133J-498398D01*
G01*
X192492738Y-104656646D02*
G75*
G02X193588640Y-104658160I547262J-499354D01*
G01*
X192491867Y-105654398D02*
G75*
G02X192491360Y-104658160I548133J498398D01*
G01*
X193139060Y-107795060D02*
X192940940Y-107795060D01*
X192940940Y-107795060D02*
X192940940Y-107596940D01*
X193139060Y-107596940D02*
X192940940Y-107596940D01*
X193139060Y-107795060D02*
X193139060Y-107596940D01*
X192590420Y-108394500D02*
X192242440Y-108394500D01*
X192242440Y-108394500D02*
X192242440Y-108145580D01*
X192590420Y-108145580D02*
X192242440Y-108145580D01*
X192590420Y-108394500D02*
X192590420Y-108145580D01*
X192242440Y-108394500D02*
X192140840Y-108394500D01*
X192140840Y-108394500D02*
X192140840Y-107198160D01*
X192242440Y-107198160D02*
X192140840Y-107198160D01*
X192242440Y-108394500D02*
X192242440Y-107198160D01*
X192242440Y-107147360D02*
X192140840Y-107147360D01*
X192140840Y-107147360D02*
X192140840Y-106997500D01*
X192242440Y-106997500D02*
X192140840Y-106997500D01*
X192242440Y-107147360D02*
X192242440Y-106997500D01*
X193939160Y-108394500D02*
X193837560Y-108394500D01*
X193837560Y-108394500D02*
X193837560Y-107198160D01*
X193939160Y-107198160D02*
X193837560Y-107198160D01*
X193939160Y-108394500D02*
X193939160Y-107198160D01*
X193939160Y-107147360D02*
X193837560Y-107147360D01*
X193837560Y-107147360D02*
X193837560Y-106997500D01*
X193939160Y-106997500D02*
X193837560Y-106997500D01*
X193939160Y-107147360D02*
X193939160Y-106997500D01*
X192590420Y-108394500D02*
X192440560Y-108394500D01*
X192440560Y-108394500D02*
X192440560Y-108145580D01*
X192590420Y-108145580D02*
X192440560Y-108145580D01*
X192590420Y-108394500D02*
X192590420Y-108145580D01*
X191490600Y-108445300D02*
X194589400Y-108445300D01*
X194589400Y-108445300D02*
X194589400Y-106946700D01*
X194589400Y-106946700D02*
X191490600Y-106946700D01*
X191490600Y-106946700D02*
X191490600Y-108445300D01*
X193587262Y-108195354D02*
G75*
G02X192491360Y-108193840I-547262J499354D01*
G01*
X193588133Y-107197602D02*
G75*
G02X193588640Y-108193840I-548133J-498398D01*
G01*
X192492738Y-107196646D02*
G75*
G02X193588640Y-107198160I547262J-499354D01*
G01*
X192491867Y-108194398D02*
G75*
G02X192491360Y-107198160I548133J498398D01*
G01*
X193139060Y-110335060D02*
X192940940Y-110335060D01*
X192940940Y-110335060D02*
X192940940Y-110136940D01*
X193139060Y-110136940D02*
X192940940Y-110136940D01*
X193139060Y-110335060D02*
X193139060Y-110136940D01*
X192590420Y-110934500D02*
X192242440Y-110934500D01*
X192242440Y-110934500D02*
X192242440Y-110685580D01*
X192590420Y-110685580D02*
X192242440Y-110685580D01*
X192590420Y-110934500D02*
X192590420Y-110685580D01*
X192242440Y-110934500D02*
X192140840Y-110934500D01*
X192140840Y-110934500D02*
X192140840Y-109738160D01*
X192242440Y-109738160D02*
X192140840Y-109738160D01*
X192242440Y-110934500D02*
X192242440Y-109738160D01*
X192242440Y-109687360D02*
X192140840Y-109687360D01*
X192140840Y-109687360D02*
X192140840Y-109537500D01*
X192242440Y-109537500D02*
X192140840Y-109537500D01*
X192242440Y-109687360D02*
X192242440Y-109537500D01*
X193939160Y-110934500D02*
X193837560Y-110934500D01*
X193837560Y-110934500D02*
X193837560Y-109738160D01*
X193939160Y-109738160D02*
X193837560Y-109738160D01*
X193939160Y-110934500D02*
X193939160Y-109738160D01*
X193939160Y-109687360D02*
X193837560Y-109687360D01*
X193837560Y-109687360D02*
X193837560Y-109537500D01*
X193939160Y-109537500D02*
X193837560Y-109537500D01*
X193939160Y-109687360D02*
X193939160Y-109537500D01*
X192590420Y-110934500D02*
X192440560Y-110934500D01*
X192440560Y-110934500D02*
X192440560Y-110685580D01*
X192590420Y-110685580D02*
X192440560Y-110685580D01*
X192590420Y-110934500D02*
X192590420Y-110685580D01*
X191490600Y-110985300D02*
X194589400Y-110985300D01*
X194589400Y-110985300D02*
X194589400Y-109486700D01*
X194589400Y-109486700D02*
X191490600Y-109486700D01*
X191490600Y-109486700D02*
X191490600Y-110985300D01*
X193587262Y-110735354D02*
G75*
G02X192491360Y-110733840I-547262J499354D01*
G01*
X193588133Y-109737602D02*
G75*
G02X193588640Y-110733840I-548133J-498398D01*
G01*
X192492738Y-109736646D02*
G75*
G02X193588640Y-109738160I547262J-499354D01*
G01*
X192491867Y-110734398D02*
G75*
G02X192491360Y-109738160I548133J498398D01*
G01*
X128270000Y-123190000D02*
X133350000Y-123190000D01*
X125450000Y-123470000D02*
X125450000Y-121920000D01*
X125730000Y-120650000D02*
X128270000Y-120650000D01*
X128270000Y-120650000D02*
X128270000Y-123190000D01*
X133350000Y-123190000D02*
X133350000Y-118110000D01*
X133350000Y-118110000D02*
X128270000Y-118110000D01*
X125450000Y-123470000D02*
X127000000Y-123470000D01*
X125730000Y-118110000D02*
X125730000Y-120650000D01*
X128270000Y-118110000D02*
X125730000Y-118110000D01*
X186690000Y-118110000D02*
X135890000Y-118110000D01*
X138430000Y-123190000D02*
X186690000Y-123190000D01*
X186690000Y-118110000D02*
X186690000Y-123190000D01*
X135890000Y-118110000D02*
X135890000Y-120650000D01*
X135610000Y-121920000D02*
X135610000Y-123470000D01*
X135890000Y-120650000D02*
X138430000Y-120650000D01*
X138430000Y-120650000D02*
X138430000Y-123190000D01*
X135610000Y-123470000D02*
X137160000Y-123470000D01*
X186690000Y-57150000D02*
X135890000Y-57150000D01*
X138430000Y-62230000D02*
X186690000Y-62230000D01*
X186690000Y-57150000D02*
X186690000Y-62230000D01*
X135890000Y-57150000D02*
X135890000Y-59690000D01*
X135610000Y-60960000D02*
X135610000Y-62510000D01*
X135890000Y-59690000D02*
X138430000Y-59690000D01*
X138430000Y-59690000D02*
X138430000Y-62230000D01*
X135610000Y-62510000D02*
X137160000Y-62510000D01*
X186690000Y-97790000D02*
X194310000Y-97790000D01*
X186690000Y-95250000D02*
X194310000Y-95250000D01*
X183870000Y-94970000D02*
X185420000Y-94970000D01*
X194310000Y-97790000D02*
X194310000Y-95250000D01*
X186690000Y-95250000D02*
X186690000Y-97790000D01*
X185420000Y-98070000D02*
X183870000Y-98070000D01*
X183870000Y-98070000D02*
X183870000Y-94970000D01*
X133037000Y-88376000D02*
X133037000Y-86376000D01*
X135187000Y-86376000D02*
X135187000Y-88376000D01*
X128465000Y-66532000D02*
X128465000Y-64532000D01*
X130615000Y-64532000D02*
X130615000Y-66532000D01*
X130615000Y-74692000D02*
X130615000Y-76692000D01*
X128465000Y-76692000D02*
X128465000Y-74692000D01*
X189500000Y-87825000D02*
X191500000Y-87825000D01*
X191500000Y-89975000D02*
X189500000Y-89975000D01*
X189500000Y-85285000D02*
X191500000Y-85285000D01*
X191500000Y-87435000D02*
X189500000Y-87435000D01*
X189500000Y-82745000D02*
X191500000Y-82745000D01*
X191500000Y-84895000D02*
X189500000Y-84895000D01*
X189500000Y-80205000D02*
X191500000Y-80205000D01*
X191500000Y-82355000D02*
X189500000Y-82355000D01*
X189500000Y-77665000D02*
X191500000Y-77665000D01*
X191500000Y-79815000D02*
X189500000Y-79815000D01*
X189500000Y-75125000D02*
X191500000Y-75125000D01*
X191500000Y-77275000D02*
X189500000Y-77275000D01*
X189500000Y-72585000D02*
X191500000Y-72585000D01*
X191500000Y-74735000D02*
X189500000Y-74735000D01*
X189500000Y-70045000D02*
X191500000Y-70045000D01*
X191500000Y-72195000D02*
X189500000Y-72195000D01*
X174260000Y-94175000D02*
X176260000Y-94175000D01*
X176260000Y-96325000D02*
X174260000Y-96325000D01*
X174260000Y-91635000D02*
X176260000Y-91635000D01*
X176260000Y-93785000D02*
X174260000Y-93785000D01*
X183912000Y-101541000D02*
X185912000Y-101541000D01*
X185912000Y-103691000D02*
X183912000Y-103691000D01*
X183912000Y-104081000D02*
X185912000Y-104081000D01*
X185912000Y-106231000D02*
X183912000Y-106231000D01*
X183912000Y-106621000D02*
X185912000Y-106621000D01*
X185912000Y-108771000D02*
X183912000Y-108771000D01*
X183912000Y-109161000D02*
X185912000Y-109161000D01*
X185912000Y-111311000D02*
X183912000Y-111311000D01*
X141717000Y-72629000D02*
X141717000Y-73704000D01*
X162067000Y-72629000D02*
X162067000Y-73704000D01*
X162067000Y-92979000D02*
X162067000Y-91904000D01*
X141717000Y-92979000D02*
X141717000Y-91904000D01*
X141717000Y-72629000D02*
X142792000Y-72629000D01*
X141717000Y-92979000D02*
X142792000Y-92979000D01*
X162067000Y-92979000D02*
X160992000Y-92979000D01*
X162067000Y-72629000D02*
X160992000Y-72629000D01*
X141717000Y-73704000D02*
X140617000Y-73704000D01*
X128524000Y-115316000D02*
X131572000Y-115316000D01*
X131572000Y-115316000D02*
X131572000Y-108204000D01*
X131572000Y-108204000D02*
X128524000Y-108204000D01*
X125476000Y-115316000D02*
X124714000Y-115316000D01*
X124714000Y-115316000D02*
X122428000Y-113792000D01*
X122428000Y-113792000D02*
X122428000Y-109728000D01*
X122428000Y-109728000D02*
X124714000Y-108204000D01*
X124714000Y-108204000D02*
X125476000Y-108204000D01*
X172685000Y-103675000D02*
X172830000Y-103675000D01*
X172685000Y-99525000D02*
X172830000Y-99525000D01*
X177835000Y-99525000D02*
X177690000Y-99525000D01*
X177835000Y-103675000D02*
X177690000Y-103675000D01*
X172685000Y-103675000D02*
X172685000Y-99525000D01*
X177835000Y-103675000D02*
X177835000Y-99525000D01*
X172830000Y-103675000D02*
X172830000Y-105075000D01*
X126834000Y-85844000D02*
X126834000Y-84844000D01*
X125134000Y-84844000D02*
X125134000Y-85844000D01*
X125134000Y-88908000D02*
X125134000Y-89908000D01*
X126834000Y-89908000D02*
X126834000Y-88908000D01*
X131048760Y-92075000D02*
X130647440Y-92275660D01*
X130647440Y-92275660D02*
X130048000Y-92377260D01*
X130048000Y-92377260D02*
X129547620Y-92275660D01*
X129547620Y-92275660D02*
X128849120Y-91876880D01*
X128849120Y-91876880D02*
X128447800Y-91274900D01*
X128447800Y-91274900D02*
X128247140Y-90675460D01*
X128247140Y-90675460D02*
X128247140Y-84076540D01*
X128247140Y-84076540D02*
X128447800Y-83375500D01*
X128447800Y-83375500D02*
X128747520Y-82976720D01*
X128747520Y-82976720D02*
X129247900Y-82575400D01*
X129247900Y-82575400D02*
X129847340Y-82374740D01*
X129847340Y-82374740D02*
X130347720Y-82374740D01*
X130347720Y-82374740D02*
X130848100Y-82575400D01*
X130848100Y-82575400D02*
X131447540Y-83075780D01*
X131447540Y-83075780D02*
X131747260Y-83576160D01*
X131747260Y-83576160D02*
X131848860Y-84076540D01*
X131848860Y-84175600D02*
X131848860Y-90777060D01*
X131848860Y-90777060D02*
X131747260Y-91175840D01*
X131747260Y-91175840D02*
X131447540Y-91676220D01*
X131447540Y-91676220D02*
X130947160Y-92176600D01*
X132377180Y-84185760D02*
X132328920Y-83726020D01*
X132328920Y-83726020D02*
X132217160Y-83327240D01*
X132217160Y-83327240D02*
X131998720Y-82895440D01*
X131998720Y-82895440D02*
X131767580Y-82605880D01*
X131767580Y-82605880D02*
X131417060Y-82275680D01*
X131417060Y-82275680D02*
X130878580Y-81986120D01*
X130878580Y-81986120D02*
X130279140Y-81856580D01*
X130279140Y-81856580D02*
X129768600Y-81856580D01*
X129768600Y-81856580D02*
X129067560Y-82026760D01*
X129067560Y-82026760D02*
X128478280Y-82425540D01*
X128478280Y-82425540D02*
X128107440Y-82885280D01*
X128107440Y-82885280D02*
X127899160Y-83306920D01*
X127899160Y-83306920D02*
X127739140Y-83756500D01*
X127739140Y-83756500D02*
X127708660Y-84195920D01*
X127927100Y-91536520D02*
X128148080Y-91914980D01*
X128148080Y-91914980D02*
X128427480Y-92235020D01*
X128427480Y-92235020D02*
X128757680Y-92486480D01*
X128757680Y-92486480D02*
X129308860Y-92786200D01*
X129308860Y-92786200D02*
X129778760Y-92895420D01*
X129778760Y-92895420D02*
X130238500Y-92915740D01*
X130238500Y-92915740D02*
X130698240Y-92826840D01*
X130698240Y-92826840D02*
X131147820Y-92636340D01*
X131147820Y-92636340D02*
X131617720Y-92275660D01*
X131617720Y-92275660D02*
X131937760Y-91925140D01*
X131937760Y-91925140D02*
X132168900Y-91536520D01*
X132168900Y-91536520D02*
X132308600Y-91107260D01*
X132308600Y-91107260D02*
X132377180Y-90665300D01*
X127718820Y-84175600D02*
X127718820Y-90627200D01*
X127718820Y-90627200D02*
X127756920Y-91046300D01*
X127756920Y-91046300D02*
X127927100Y-91536520D01*
X132377180Y-84175600D02*
X132377180Y-90627200D01*
X120580000Y-107070000D02*
X120580000Y-98670000D01*
X111380000Y-98670000D02*
X111380000Y-107070000D01*
X111380000Y-107070000D02*
X120580000Y-107070000D01*
X120580000Y-98670000D02*
X111380000Y-98670000D01*
X202000000Y-59340000D02*
X202000000Y-98140000D01*
X211200000Y-59340000D02*
X211200000Y-98140000D01*
X202000000Y-59340000D02*
X211200000Y-59340000D01*
X202000000Y-98140000D02*
X211200000Y-98140000D01*
X111380000Y-83560000D02*
X111380000Y-63760000D01*
X120580000Y-63760000D02*
X111380000Y-63760000D01*
X120580000Y-83560000D02*
X120580000Y-63760000D01*
X120580000Y-83560000D02*
X111380000Y-83560000D01*
X211200000Y-101860000D02*
X211200000Y-121660000D01*
X202000000Y-121660000D02*
X211200000Y-121660000D01*
X202000000Y-101860000D02*
X202000000Y-121660000D01*
X202000000Y-101860000D02*
X211200000Y-101860000D01*
X173951000Y-79287000D02*
X173951000Y-79312000D01*
X178601000Y-79287000D02*
X178601000Y-79312000D01*
X178601000Y-87337000D02*
X178601000Y-87312000D01*
X173951000Y-87337000D02*
X173951000Y-87312000D01*
X173951000Y-79287000D02*
X178601000Y-79287000D01*
X173951000Y-87337000D02*
X178601000Y-87337000D01*
X173951000Y-79312000D02*
X172876000Y-79312000D01*
X126833334Y-99417143D02*
X126785715Y-99464762D01*
X126642858Y-99512381D01*
X126547620Y-99512381D01*
X126404762Y-99464762D01*
X126309524Y-99369524D01*
X126261905Y-99274286D01*
X126214286Y-99083810D01*
X126214286Y-98940952D01*
X126261905Y-98750476D01*
X126309524Y-98655238D01*
X126404762Y-98560000D01*
X126547620Y-98512381D01*
X126642858Y-98512381D01*
X126785715Y-98560000D01*
X126833334Y-98607619D01*
X127166667Y-98512381D02*
X127785715Y-98512381D01*
X127452381Y-98893333D01*
X127595239Y-98893333D01*
X127690477Y-98940952D01*
X127738096Y-98988571D01*
X127785715Y-99083810D01*
X127785715Y-99321905D01*
X127738096Y-99417143D01*
X127690477Y-99464762D01*
X127595239Y-99512381D01*
X127309524Y-99512381D01*
X127214286Y-99464762D01*
X127166667Y-99417143D01*
X130389334Y-99925143D02*
X130341715Y-99972762D01*
X130198858Y-100020381D01*
X130103620Y-100020381D01*
X129960762Y-99972762D01*
X129865524Y-99877524D01*
X129817905Y-99782286D01*
X129770286Y-99591810D01*
X129770286Y-99448952D01*
X129817905Y-99258476D01*
X129865524Y-99163238D01*
X129960762Y-99068000D01*
X130103620Y-99020381D01*
X130198858Y-99020381D01*
X130341715Y-99068000D01*
X130389334Y-99115619D01*
X131246477Y-99353714D02*
X131246477Y-100020381D01*
X131008381Y-98972762D02*
X130770286Y-99687048D01*
X131389334Y-99687048D01*
X134453334Y-108561143D02*
X134405715Y-108608762D01*
X134262858Y-108656381D01*
X134167620Y-108656381D01*
X134024762Y-108608762D01*
X133929524Y-108513524D01*
X133881905Y-108418286D01*
X133834286Y-108227810D01*
X133834286Y-108084952D01*
X133881905Y-107894476D01*
X133929524Y-107799238D01*
X134024762Y-107704000D01*
X134167620Y-107656381D01*
X134262858Y-107656381D01*
X134405715Y-107704000D01*
X134453334Y-107751619D01*
X135358096Y-107656381D02*
X134881905Y-107656381D01*
X134834286Y-108132571D01*
X134881905Y-108084952D01*
X134977143Y-108037333D01*
X135215239Y-108037333D01*
X135310477Y-108084952D01*
X135358096Y-108132571D01*
X135405715Y-108227810D01*
X135405715Y-108465905D01*
X135358096Y-108561143D01*
X135310477Y-108608762D01*
X135215239Y-108656381D01*
X134977143Y-108656381D01*
X134881905Y-108608762D01*
X134834286Y-108561143D01*
X198905905Y-89352381D02*
X198905905Y-88352381D01*
X199144000Y-88352381D01*
X199286858Y-88400000D01*
X199382096Y-88495238D01*
X199429715Y-88590476D01*
X199477334Y-88780952D01*
X199477334Y-88923810D01*
X199429715Y-89114286D01*
X199382096Y-89209524D01*
X199286858Y-89304762D01*
X199144000Y-89352381D01*
X198905905Y-89352381D01*
X200429715Y-89352381D02*
X199858286Y-89352381D01*
X200144000Y-89352381D02*
X200144000Y-88352381D01*
X200048762Y-88495238D01*
X199953524Y-88590476D01*
X199858286Y-88638095D01*
X198905905Y-86812381D02*
X198905905Y-85812381D01*
X199144000Y-85812381D01*
X199286858Y-85860000D01*
X199382096Y-85955238D01*
X199429715Y-86050476D01*
X199477334Y-86240952D01*
X199477334Y-86383810D01*
X199429715Y-86574286D01*
X199382096Y-86669524D01*
X199286858Y-86764762D01*
X199144000Y-86812381D01*
X198905905Y-86812381D01*
X199858286Y-85907619D02*
X199905905Y-85860000D01*
X200001143Y-85812381D01*
X200239239Y-85812381D01*
X200334477Y-85860000D01*
X200382096Y-85907619D01*
X200429715Y-86002857D01*
X200429715Y-86098095D01*
X200382096Y-86240952D01*
X199810667Y-86812381D01*
X200429715Y-86812381D01*
X198905905Y-84272381D02*
X198905905Y-83272381D01*
X199144000Y-83272381D01*
X199286858Y-83320000D01*
X199382096Y-83415238D01*
X199429715Y-83510476D01*
X199477334Y-83700952D01*
X199477334Y-83843810D01*
X199429715Y-84034286D01*
X199382096Y-84129524D01*
X199286858Y-84224762D01*
X199144000Y-84272381D01*
X198905905Y-84272381D01*
X199810667Y-83272381D02*
X200429715Y-83272381D01*
X200096381Y-83653333D01*
X200239239Y-83653333D01*
X200334477Y-83700952D01*
X200382096Y-83748571D01*
X200429715Y-83843810D01*
X200429715Y-84081905D01*
X200382096Y-84177143D01*
X200334477Y-84224762D01*
X200239239Y-84272381D01*
X199953524Y-84272381D01*
X199858286Y-84224762D01*
X199810667Y-84177143D01*
X198905905Y-81732381D02*
X198905905Y-80732381D01*
X199144000Y-80732381D01*
X199286858Y-80780000D01*
X199382096Y-80875238D01*
X199429715Y-80970476D01*
X199477334Y-81160952D01*
X199477334Y-81303810D01*
X199429715Y-81494286D01*
X199382096Y-81589524D01*
X199286858Y-81684762D01*
X199144000Y-81732381D01*
X198905905Y-81732381D01*
X200334477Y-81065714D02*
X200334477Y-81732381D01*
X200096381Y-80684762D02*
X199858286Y-81399048D01*
X200477334Y-81399048D01*
X198905905Y-79192381D02*
X198905905Y-78192381D01*
X199144000Y-78192381D01*
X199286858Y-78240000D01*
X199382096Y-78335238D01*
X199429715Y-78430476D01*
X199477334Y-78620952D01*
X199477334Y-78763810D01*
X199429715Y-78954286D01*
X199382096Y-79049524D01*
X199286858Y-79144762D01*
X199144000Y-79192381D01*
X198905905Y-79192381D01*
X200382096Y-78192381D02*
X199905905Y-78192381D01*
X199858286Y-78668571D01*
X199905905Y-78620952D01*
X200001143Y-78573333D01*
X200239239Y-78573333D01*
X200334477Y-78620952D01*
X200382096Y-78668571D01*
X200429715Y-78763810D01*
X200429715Y-79001905D01*
X200382096Y-79097143D01*
X200334477Y-79144762D01*
X200239239Y-79192381D01*
X200001143Y-79192381D01*
X199905905Y-79144762D01*
X199858286Y-79097143D01*
X198905905Y-76652381D02*
X198905905Y-75652381D01*
X199144000Y-75652381D01*
X199286858Y-75700000D01*
X199382096Y-75795238D01*
X199429715Y-75890476D01*
X199477334Y-76080952D01*
X199477334Y-76223810D01*
X199429715Y-76414286D01*
X199382096Y-76509524D01*
X199286858Y-76604762D01*
X199144000Y-76652381D01*
X198905905Y-76652381D01*
X200334477Y-75652381D02*
X200144000Y-75652381D01*
X200048762Y-75700000D01*
X200001143Y-75747619D01*
X199905905Y-75890476D01*
X199858286Y-76080952D01*
X199858286Y-76461905D01*
X199905905Y-76557143D01*
X199953524Y-76604762D01*
X200048762Y-76652381D01*
X200239239Y-76652381D01*
X200334477Y-76604762D01*
X200382096Y-76557143D01*
X200429715Y-76461905D01*
X200429715Y-76223810D01*
X200382096Y-76128571D01*
X200334477Y-76080952D01*
X200239239Y-76033333D01*
X200048762Y-76033333D01*
X199953524Y-76080952D01*
X199905905Y-76128571D01*
X199858286Y-76223810D01*
X198905905Y-74112381D02*
X198905905Y-73112381D01*
X199144000Y-73112381D01*
X199286858Y-73160000D01*
X199382096Y-73255238D01*
X199429715Y-73350476D01*
X199477334Y-73540952D01*
X199477334Y-73683810D01*
X199429715Y-73874286D01*
X199382096Y-73969524D01*
X199286858Y-74064762D01*
X199144000Y-74112381D01*
X198905905Y-74112381D01*
X199810667Y-73112381D02*
X200477334Y-73112381D01*
X200048762Y-74112381D01*
X198905905Y-71572381D02*
X198905905Y-70572381D01*
X199144000Y-70572381D01*
X199286858Y-70620000D01*
X199382096Y-70715238D01*
X199429715Y-70810476D01*
X199477334Y-71000952D01*
X199477334Y-71143810D01*
X199429715Y-71334286D01*
X199382096Y-71429524D01*
X199286858Y-71524762D01*
X199144000Y-71572381D01*
X198905905Y-71572381D01*
X200048762Y-71000952D02*
X199953524Y-70953333D01*
X199905905Y-70905714D01*
X199858286Y-70810476D01*
X199858286Y-70762857D01*
X199905905Y-70667619D01*
X199953524Y-70620000D01*
X200048762Y-70572381D01*
X200239239Y-70572381D01*
X200334477Y-70620000D01*
X200382096Y-70667619D01*
X200429715Y-70762857D01*
X200429715Y-70810476D01*
X200382096Y-70905714D01*
X200334477Y-70953333D01*
X200239239Y-71000952D01*
X200048762Y-71000952D01*
X199953524Y-71048571D01*
X199905905Y-71096190D01*
X199858286Y-71191429D01*
X199858286Y-71381905D01*
X199905905Y-71477143D01*
X199953524Y-71524762D01*
X200048762Y-71572381D01*
X200239239Y-71572381D01*
X200334477Y-71524762D01*
X200382096Y-71477143D01*
X200429715Y-71381905D01*
X200429715Y-71191429D01*
X200382096Y-71096190D01*
X200334477Y-71048571D01*
X200239239Y-71000952D01*
X188999905Y-103068381D02*
X188999905Y-102068381D01*
X189238000Y-102068381D01*
X189380858Y-102116000D01*
X189476096Y-102211238D01*
X189523715Y-102306476D01*
X189571334Y-102496952D01*
X189571334Y-102639810D01*
X189523715Y-102830286D01*
X189476096Y-102925524D01*
X189380858Y-103020762D01*
X189238000Y-103068381D01*
X188999905Y-103068381D01*
X190047524Y-103068381D02*
X190238000Y-103068381D01*
X190333239Y-103020762D01*
X190380858Y-102973143D01*
X190476096Y-102830286D01*
X190523715Y-102639810D01*
X190523715Y-102258857D01*
X190476096Y-102163619D01*
X190428477Y-102116000D01*
X190333239Y-102068381D01*
X190142762Y-102068381D01*
X190047524Y-102116000D01*
X189999905Y-102163619D01*
X189952286Y-102258857D01*
X189952286Y-102496952D01*
X189999905Y-102592190D01*
X190047524Y-102639810D01*
X190142762Y-102687429D01*
X190333239Y-102687429D01*
X190428477Y-102639810D01*
X190476096Y-102592190D01*
X190523715Y-102496952D01*
X188269714Y-105608381D02*
X188269714Y-104608381D01*
X188507809Y-104608381D01*
X188650667Y-104656000D01*
X188745905Y-104751238D01*
X188793524Y-104846476D01*
X188841143Y-105036952D01*
X188841143Y-105179810D01*
X188793524Y-105370286D01*
X188745905Y-105465524D01*
X188650667Y-105560762D01*
X188507809Y-105608381D01*
X188269714Y-105608381D01*
X189793524Y-105608381D02*
X189222095Y-105608381D01*
X189507809Y-105608381D02*
X189507809Y-104608381D01*
X189412571Y-104751238D01*
X189317333Y-104846476D01*
X189222095Y-104894095D01*
X190412571Y-104608381D02*
X190507810Y-104608381D01*
X190603048Y-104656000D01*
X190650667Y-104703619D01*
X190698286Y-104798857D01*
X190745905Y-104989333D01*
X190745905Y-105227429D01*
X190698286Y-105417905D01*
X190650667Y-105513143D01*
X190603048Y-105560762D01*
X190507810Y-105608381D01*
X190412571Y-105608381D01*
X190317333Y-105560762D01*
X190269714Y-105513143D01*
X190222095Y-105417905D01*
X190174476Y-105227429D01*
X190174476Y-104989333D01*
X190222095Y-104798857D01*
X190269714Y-104703619D01*
X190317333Y-104656000D01*
X190412571Y-104608381D01*
X188269714Y-108148381D02*
X188269714Y-107148381D01*
X188507809Y-107148381D01*
X188650667Y-107196000D01*
X188745905Y-107291238D01*
X188793524Y-107386476D01*
X188841143Y-107576952D01*
X188841143Y-107719810D01*
X188793524Y-107910286D01*
X188745905Y-108005524D01*
X188650667Y-108100762D01*
X188507809Y-108148381D01*
X188269714Y-108148381D01*
X189793524Y-108148381D02*
X189222095Y-108148381D01*
X189507809Y-108148381D02*
X189507809Y-107148381D01*
X189412571Y-107291238D01*
X189317333Y-107386476D01*
X189222095Y-107434095D01*
X190745905Y-108148381D02*
X190174476Y-108148381D01*
X190460190Y-108148381D02*
X190460190Y-107148381D01*
X190364952Y-107291238D01*
X190269714Y-107386476D01*
X190174476Y-107434095D01*
X188269714Y-110688381D02*
X188269714Y-109688381D01*
X188507809Y-109688381D01*
X188650667Y-109736000D01*
X188745905Y-109831238D01*
X188793524Y-109926476D01*
X188841143Y-110116952D01*
X188841143Y-110259810D01*
X188793524Y-110450286D01*
X188745905Y-110545524D01*
X188650667Y-110640762D01*
X188507809Y-110688381D01*
X188269714Y-110688381D01*
X189793524Y-110688381D02*
X189222095Y-110688381D01*
X189507809Y-110688381D02*
X189507809Y-109688381D01*
X189412571Y-109831238D01*
X189317333Y-109926476D01*
X189222095Y-109974095D01*
X190174476Y-109783619D02*
X190222095Y-109736000D01*
X190317333Y-109688381D01*
X190555429Y-109688381D01*
X190650667Y-109736000D01*
X190698286Y-109783619D01*
X190745905Y-109878857D01*
X190745905Y-109974095D01*
X190698286Y-110116952D01*
X190126857Y-110688381D01*
X190745905Y-110688381D01*
X124912381Y-122658095D02*
X123912381Y-122658095D01*
X123912381Y-122277142D01*
X123960000Y-122181904D01*
X124007619Y-122134285D01*
X124102857Y-122086666D01*
X124245714Y-122086666D01*
X124340952Y-122134285D01*
X124388571Y-122181904D01*
X124436190Y-122277142D01*
X124436190Y-122658095D01*
X123912381Y-121181904D02*
X123912381Y-121658095D01*
X124388571Y-121705714D01*
X124340952Y-121658095D01*
X124293333Y-121562857D01*
X124293333Y-121324761D01*
X124340952Y-121229523D01*
X124388571Y-121181904D01*
X124483810Y-121134285D01*
X124721905Y-121134285D01*
X124817143Y-121181904D01*
X124864762Y-121229523D01*
X124912381Y-121324761D01*
X124912381Y-121562857D01*
X124864762Y-121658095D01*
X124817143Y-121705714D01*
X135072381Y-122658095D02*
X134072381Y-122658095D01*
X134072381Y-122277142D01*
X134120000Y-122181904D01*
X134167619Y-122134285D01*
X134262857Y-122086666D01*
X134405714Y-122086666D01*
X134500952Y-122134285D01*
X134548571Y-122181904D01*
X134596190Y-122277142D01*
X134596190Y-122658095D01*
X134072381Y-121229523D02*
X134072381Y-121420000D01*
X134120000Y-121515238D01*
X134167619Y-121562857D01*
X134310476Y-121658095D01*
X134500952Y-121705714D01*
X134881905Y-121705714D01*
X134977143Y-121658095D01*
X135024762Y-121610476D01*
X135072381Y-121515238D01*
X135072381Y-121324761D01*
X135024762Y-121229523D01*
X134977143Y-121181904D01*
X134881905Y-121134285D01*
X134643810Y-121134285D01*
X134548571Y-121181904D01*
X134500952Y-121229523D01*
X134453333Y-121324761D01*
X134453333Y-121515238D01*
X134500952Y-121610476D01*
X134548571Y-121658095D01*
X134643810Y-121705714D01*
X135072381Y-61698095D02*
X134072381Y-61698095D01*
X134072381Y-61317142D01*
X134120000Y-61221904D01*
X134167619Y-61174285D01*
X134262857Y-61126666D01*
X134405714Y-61126666D01*
X134500952Y-61174285D01*
X134548571Y-61221904D01*
X134596190Y-61317142D01*
X134596190Y-61698095D01*
X134072381Y-60793333D02*
X134072381Y-60126666D01*
X135072381Y-60555238D01*
X195476905Y-96972381D02*
X195476905Y-95972381D01*
X195857858Y-95972381D01*
X195953096Y-96020000D01*
X196000715Y-96067619D01*
X196048334Y-96162857D01*
X196048334Y-96305714D01*
X196000715Y-96400952D01*
X195953096Y-96448571D01*
X195857858Y-96496190D01*
X195476905Y-96496190D01*
X196619762Y-96400952D02*
X196524524Y-96353333D01*
X196476905Y-96305714D01*
X196429286Y-96210476D01*
X196429286Y-96162857D01*
X196476905Y-96067619D01*
X196524524Y-96020000D01*
X196619762Y-95972381D01*
X196810239Y-95972381D01*
X196905477Y-96020000D01*
X196953096Y-96067619D01*
X197000715Y-96162857D01*
X197000715Y-96210476D01*
X196953096Y-96305714D01*
X196905477Y-96353333D01*
X196810239Y-96400952D01*
X196619762Y-96400952D01*
X196524524Y-96448571D01*
X196476905Y-96496190D01*
X196429286Y-96591429D01*
X196429286Y-96781905D01*
X196476905Y-96877143D01*
X196524524Y-96924762D01*
X196619762Y-96972381D01*
X196810239Y-96972381D01*
X196905477Y-96924762D01*
X196953096Y-96877143D01*
X197000715Y-96781905D01*
X197000715Y-96591429D01*
X196953096Y-96496190D01*
X196905477Y-96448571D01*
X196810239Y-96400952D01*
X133945334Y-83764381D02*
X133612000Y-83288190D01*
X133373905Y-83764381D02*
X133373905Y-82764381D01*
X133754858Y-82764381D01*
X133850096Y-82812000D01*
X133897715Y-82859619D01*
X133945334Y-82954857D01*
X133945334Y-83097714D01*
X133897715Y-83192952D01*
X133850096Y-83240571D01*
X133754858Y-83288190D01*
X133373905Y-83288190D01*
X134897715Y-83764381D02*
X134326286Y-83764381D01*
X134612000Y-83764381D02*
X134612000Y-82764381D01*
X134516762Y-82907238D01*
X134421524Y-83002476D01*
X134326286Y-83050095D01*
X129373334Y-61412381D02*
X129040000Y-60936190D01*
X128801905Y-61412381D02*
X128801905Y-60412381D01*
X129182858Y-60412381D01*
X129278096Y-60460000D01*
X129325715Y-60507619D01*
X129373334Y-60602857D01*
X129373334Y-60745714D01*
X129325715Y-60840952D01*
X129278096Y-60888571D01*
X129182858Y-60936190D01*
X128801905Y-60936190D01*
X129754286Y-60507619D02*
X129801905Y-60460000D01*
X129897143Y-60412381D01*
X130135239Y-60412381D01*
X130230477Y-60460000D01*
X130278096Y-60507619D01*
X130325715Y-60602857D01*
X130325715Y-60698095D01*
X130278096Y-60840952D01*
X129706667Y-61412381D01*
X130325715Y-61412381D01*
X129373334Y-72080381D02*
X129040000Y-71604190D01*
X128801905Y-72080381D02*
X128801905Y-71080381D01*
X129182858Y-71080381D01*
X129278096Y-71128000D01*
X129325715Y-71175619D01*
X129373334Y-71270857D01*
X129373334Y-71413714D01*
X129325715Y-71508952D01*
X129278096Y-71556571D01*
X129182858Y-71604190D01*
X128801905Y-71604190D01*
X129706667Y-71080381D02*
X130325715Y-71080381D01*
X129992381Y-71461333D01*
X130135239Y-71461333D01*
X130230477Y-71508952D01*
X130278096Y-71556571D01*
X130325715Y-71651810D01*
X130325715Y-71889905D01*
X130278096Y-71985143D01*
X130230477Y-72032762D01*
X130135239Y-72080381D01*
X129849524Y-72080381D01*
X129754286Y-72032762D01*
X129706667Y-71985143D01*
X185761334Y-89352381D02*
X185428000Y-88876190D01*
X185189905Y-89352381D02*
X185189905Y-88352381D01*
X185570858Y-88352381D01*
X185666096Y-88400000D01*
X185713715Y-88447619D01*
X185761334Y-88542857D01*
X185761334Y-88685714D01*
X185713715Y-88780952D01*
X185666096Y-88828571D01*
X185570858Y-88876190D01*
X185189905Y-88876190D01*
X186618477Y-88685714D02*
X186618477Y-89352381D01*
X186380381Y-88304762D02*
X186142286Y-89019048D01*
X186761334Y-89019048D01*
X185761334Y-86812381D02*
X185428000Y-86336190D01*
X185189905Y-86812381D02*
X185189905Y-85812381D01*
X185570858Y-85812381D01*
X185666096Y-85860000D01*
X185713715Y-85907619D01*
X185761334Y-86002857D01*
X185761334Y-86145714D01*
X185713715Y-86240952D01*
X185666096Y-86288571D01*
X185570858Y-86336190D01*
X185189905Y-86336190D01*
X186666096Y-85812381D02*
X186189905Y-85812381D01*
X186142286Y-86288571D01*
X186189905Y-86240952D01*
X186285143Y-86193333D01*
X186523239Y-86193333D01*
X186618477Y-86240952D01*
X186666096Y-86288571D01*
X186713715Y-86383810D01*
X186713715Y-86621905D01*
X186666096Y-86717143D01*
X186618477Y-86764762D01*
X186523239Y-86812381D01*
X186285143Y-86812381D01*
X186189905Y-86764762D01*
X186142286Y-86717143D01*
X185761334Y-84272381D02*
X185428000Y-83796190D01*
X185189905Y-84272381D02*
X185189905Y-83272381D01*
X185570858Y-83272381D01*
X185666096Y-83320000D01*
X185713715Y-83367619D01*
X185761334Y-83462857D01*
X185761334Y-83605714D01*
X185713715Y-83700952D01*
X185666096Y-83748571D01*
X185570858Y-83796190D01*
X185189905Y-83796190D01*
X186618477Y-83272381D02*
X186428000Y-83272381D01*
X186332762Y-83320000D01*
X186285143Y-83367619D01*
X186189905Y-83510476D01*
X186142286Y-83700952D01*
X186142286Y-84081905D01*
X186189905Y-84177143D01*
X186237524Y-84224762D01*
X186332762Y-84272381D01*
X186523239Y-84272381D01*
X186618477Y-84224762D01*
X186666096Y-84177143D01*
X186713715Y-84081905D01*
X186713715Y-83843810D01*
X186666096Y-83748571D01*
X186618477Y-83700952D01*
X186523239Y-83653333D01*
X186332762Y-83653333D01*
X186237524Y-83700952D01*
X186189905Y-83748571D01*
X186142286Y-83843810D01*
X185761334Y-81732381D02*
X185428000Y-81256190D01*
X185189905Y-81732381D02*
X185189905Y-80732381D01*
X185570858Y-80732381D01*
X185666096Y-80780000D01*
X185713715Y-80827619D01*
X185761334Y-80922857D01*
X185761334Y-81065714D01*
X185713715Y-81160952D01*
X185666096Y-81208571D01*
X185570858Y-81256190D01*
X185189905Y-81256190D01*
X186094667Y-80732381D02*
X186761334Y-80732381D01*
X186332762Y-81732381D01*
X185761334Y-79192381D02*
X185428000Y-78716190D01*
X185189905Y-79192381D02*
X185189905Y-78192381D01*
X185570858Y-78192381D01*
X185666096Y-78240000D01*
X185713715Y-78287619D01*
X185761334Y-78382857D01*
X185761334Y-78525714D01*
X185713715Y-78620952D01*
X185666096Y-78668571D01*
X185570858Y-78716190D01*
X185189905Y-78716190D01*
X186332762Y-78620952D02*
X186237524Y-78573333D01*
X186189905Y-78525714D01*
X186142286Y-78430476D01*
X186142286Y-78382857D01*
X186189905Y-78287619D01*
X186237524Y-78240000D01*
X186332762Y-78192381D01*
X186523239Y-78192381D01*
X186618477Y-78240000D01*
X186666096Y-78287619D01*
X186713715Y-78382857D01*
X186713715Y-78430476D01*
X186666096Y-78525714D01*
X186618477Y-78573333D01*
X186523239Y-78620952D01*
X186332762Y-78620952D01*
X186237524Y-78668571D01*
X186189905Y-78716190D01*
X186142286Y-78811429D01*
X186142286Y-79001905D01*
X186189905Y-79097143D01*
X186237524Y-79144762D01*
X186332762Y-79192381D01*
X186523239Y-79192381D01*
X186618477Y-79144762D01*
X186666096Y-79097143D01*
X186713715Y-79001905D01*
X186713715Y-78811429D01*
X186666096Y-78716190D01*
X186618477Y-78668571D01*
X186523239Y-78620952D01*
X185761334Y-76652381D02*
X185428000Y-76176190D01*
X185189905Y-76652381D02*
X185189905Y-75652381D01*
X185570858Y-75652381D01*
X185666096Y-75700000D01*
X185713715Y-75747619D01*
X185761334Y-75842857D01*
X185761334Y-75985714D01*
X185713715Y-76080952D01*
X185666096Y-76128571D01*
X185570858Y-76176190D01*
X185189905Y-76176190D01*
X186237524Y-76652381D02*
X186428000Y-76652381D01*
X186523239Y-76604762D01*
X186570858Y-76557143D01*
X186666096Y-76414286D01*
X186713715Y-76223810D01*
X186713715Y-75842857D01*
X186666096Y-75747619D01*
X186618477Y-75700000D01*
X186523239Y-75652381D01*
X186332762Y-75652381D01*
X186237524Y-75700000D01*
X186189905Y-75747619D01*
X186142286Y-75842857D01*
X186142286Y-76080952D01*
X186189905Y-76176190D01*
X186237524Y-76223810D01*
X186332762Y-76271429D01*
X186523239Y-76271429D01*
X186618477Y-76223810D01*
X186666096Y-76176190D01*
X186713715Y-76080952D01*
X184777143Y-74112381D02*
X184443809Y-73636190D01*
X184205714Y-74112381D02*
X184205714Y-73112381D01*
X184586667Y-73112381D01*
X184681905Y-73160000D01*
X184729524Y-73207619D01*
X184777143Y-73302857D01*
X184777143Y-73445714D01*
X184729524Y-73540952D01*
X184681905Y-73588571D01*
X184586667Y-73636190D01*
X184205714Y-73636190D01*
X185729524Y-74112381D02*
X185158095Y-74112381D01*
X185443809Y-74112381D02*
X185443809Y-73112381D01*
X185348571Y-73255238D01*
X185253333Y-73350476D01*
X185158095Y-73398095D01*
X186348571Y-73112381D02*
X186443810Y-73112381D01*
X186539048Y-73160000D01*
X186586667Y-73207619D01*
X186634286Y-73302857D01*
X186681905Y-73493333D01*
X186681905Y-73731429D01*
X186634286Y-73921905D01*
X186586667Y-74017143D01*
X186539048Y-74064762D01*
X186443810Y-74112381D01*
X186348571Y-74112381D01*
X186253333Y-74064762D01*
X186205714Y-74017143D01*
X186158095Y-73921905D01*
X186110476Y-73731429D01*
X186110476Y-73493333D01*
X186158095Y-73302857D01*
X186205714Y-73207619D01*
X186253333Y-73160000D01*
X186348571Y-73112381D01*
X184777143Y-71572381D02*
X184443809Y-71096190D01*
X184205714Y-71572381D02*
X184205714Y-70572381D01*
X184586667Y-70572381D01*
X184681905Y-70620000D01*
X184729524Y-70667619D01*
X184777143Y-70762857D01*
X184777143Y-70905714D01*
X184729524Y-71000952D01*
X184681905Y-71048571D01*
X184586667Y-71096190D01*
X184205714Y-71096190D01*
X185729524Y-71572381D02*
X185158095Y-71572381D01*
X185443809Y-71572381D02*
X185443809Y-70572381D01*
X185348571Y-70715238D01*
X185253333Y-70810476D01*
X185158095Y-70858095D01*
X186681905Y-71572381D02*
X186110476Y-71572381D01*
X186396190Y-71572381D02*
X186396190Y-70572381D01*
X186300952Y-70715238D01*
X186205714Y-70810476D01*
X186110476Y-70858095D01*
X169537143Y-95702381D02*
X169203809Y-95226190D01*
X168965714Y-95702381D02*
X168965714Y-94702381D01*
X169346667Y-94702381D01*
X169441905Y-94750000D01*
X169489524Y-94797619D01*
X169537143Y-94892857D01*
X169537143Y-95035714D01*
X169489524Y-95130952D01*
X169441905Y-95178571D01*
X169346667Y-95226190D01*
X168965714Y-95226190D01*
X170489524Y-95702381D02*
X169918095Y-95702381D01*
X170203809Y-95702381D02*
X170203809Y-94702381D01*
X170108571Y-94845238D01*
X170013333Y-94940476D01*
X169918095Y-94988095D01*
X170870476Y-94797619D02*
X170918095Y-94750000D01*
X171013333Y-94702381D01*
X171251429Y-94702381D01*
X171346667Y-94750000D01*
X171394286Y-94797619D01*
X171441905Y-94892857D01*
X171441905Y-94988095D01*
X171394286Y-95130952D01*
X170822857Y-95702381D01*
X171441905Y-95702381D01*
X169537143Y-93162381D02*
X169203809Y-92686190D01*
X168965714Y-93162381D02*
X168965714Y-92162381D01*
X169346667Y-92162381D01*
X169441905Y-92210000D01*
X169489524Y-92257619D01*
X169537143Y-92352857D01*
X169537143Y-92495714D01*
X169489524Y-92590952D01*
X169441905Y-92638571D01*
X169346667Y-92686190D01*
X168965714Y-92686190D01*
X170489524Y-93162381D02*
X169918095Y-93162381D01*
X170203809Y-93162381D02*
X170203809Y-92162381D01*
X170108571Y-92305238D01*
X170013333Y-92400476D01*
X169918095Y-92448095D01*
X170822857Y-92162381D02*
X171441905Y-92162381D01*
X171108571Y-92543333D01*
X171251429Y-92543333D01*
X171346667Y-92590952D01*
X171394286Y-92638571D01*
X171441905Y-92733810D01*
X171441905Y-92971905D01*
X171394286Y-93067143D01*
X171346667Y-93114762D01*
X171251429Y-93162381D01*
X170965714Y-93162381D01*
X170870476Y-93114762D01*
X170822857Y-93067143D01*
X179189143Y-103068381D02*
X178855809Y-102592190D01*
X178617714Y-103068381D02*
X178617714Y-102068381D01*
X178998667Y-102068381D01*
X179093905Y-102116000D01*
X179141524Y-102163619D01*
X179189143Y-102258857D01*
X179189143Y-102401714D01*
X179141524Y-102496952D01*
X179093905Y-102544571D01*
X178998667Y-102592190D01*
X178617714Y-102592190D01*
X180141524Y-103068381D02*
X179570095Y-103068381D01*
X179855809Y-103068381D02*
X179855809Y-102068381D01*
X179760571Y-102211238D01*
X179665333Y-102306476D01*
X179570095Y-102354095D01*
X180998667Y-102401714D02*
X180998667Y-103068381D01*
X180760571Y-102020762D02*
X180522476Y-102735048D01*
X181141524Y-102735048D01*
X179189143Y-105608381D02*
X178855809Y-105132190D01*
X178617714Y-105608381D02*
X178617714Y-104608381D01*
X178998667Y-104608381D01*
X179093905Y-104656000D01*
X179141524Y-104703619D01*
X179189143Y-104798857D01*
X179189143Y-104941714D01*
X179141524Y-105036952D01*
X179093905Y-105084571D01*
X178998667Y-105132190D01*
X178617714Y-105132190D01*
X180141524Y-105608381D02*
X179570095Y-105608381D01*
X179855809Y-105608381D02*
X179855809Y-104608381D01*
X179760571Y-104751238D01*
X179665333Y-104846476D01*
X179570095Y-104894095D01*
X181046286Y-104608381D02*
X180570095Y-104608381D01*
X180522476Y-105084571D01*
X180570095Y-105036952D01*
X180665333Y-104989333D01*
X180903429Y-104989333D01*
X180998667Y-105036952D01*
X181046286Y-105084571D01*
X181093905Y-105179810D01*
X181093905Y-105417905D01*
X181046286Y-105513143D01*
X180998667Y-105560762D01*
X180903429Y-105608381D01*
X180665333Y-105608381D01*
X180570095Y-105560762D01*
X180522476Y-105513143D01*
X179189143Y-108148381D02*
X178855809Y-107672190D01*
X178617714Y-108148381D02*
X178617714Y-107148381D01*
X178998667Y-107148381D01*
X179093905Y-107196000D01*
X179141524Y-107243619D01*
X179189143Y-107338857D01*
X179189143Y-107481714D01*
X179141524Y-107576952D01*
X179093905Y-107624571D01*
X178998667Y-107672190D01*
X178617714Y-107672190D01*
X180141524Y-108148381D02*
X179570095Y-108148381D01*
X179855809Y-108148381D02*
X179855809Y-107148381D01*
X179760571Y-107291238D01*
X179665333Y-107386476D01*
X179570095Y-107434095D01*
X180998667Y-107148381D02*
X180808190Y-107148381D01*
X180712952Y-107196000D01*
X180665333Y-107243619D01*
X180570095Y-107386476D01*
X180522476Y-107576952D01*
X180522476Y-107957905D01*
X180570095Y-108053143D01*
X180617714Y-108100762D01*
X180712952Y-108148381D01*
X180903429Y-108148381D01*
X180998667Y-108100762D01*
X181046286Y-108053143D01*
X181093905Y-107957905D01*
X181093905Y-107719810D01*
X181046286Y-107624571D01*
X180998667Y-107576952D01*
X180903429Y-107529333D01*
X180712952Y-107529333D01*
X180617714Y-107576952D01*
X180570095Y-107624571D01*
X180522476Y-107719810D01*
X179189143Y-110688381D02*
X178855809Y-110212190D01*
X178617714Y-110688381D02*
X178617714Y-109688381D01*
X178998667Y-109688381D01*
X179093905Y-109736000D01*
X179141524Y-109783619D01*
X179189143Y-109878857D01*
X179189143Y-110021714D01*
X179141524Y-110116952D01*
X179093905Y-110164571D01*
X178998667Y-110212190D01*
X178617714Y-110212190D01*
X180141524Y-110688381D02*
X179570095Y-110688381D01*
X179855809Y-110688381D02*
X179855809Y-109688381D01*
X179760571Y-109831238D01*
X179665333Y-109926476D01*
X179570095Y-109974095D01*
X180474857Y-109688381D02*
X181141524Y-109688381D01*
X180712952Y-110688381D01*
X151130095Y-69981381D02*
X151130095Y-70790905D01*
X151177714Y-70886143D01*
X151225333Y-70933762D01*
X151320571Y-70981381D01*
X151511048Y-70981381D01*
X151606286Y-70933762D01*
X151653905Y-70886143D01*
X151701524Y-70790905D01*
X151701524Y-69981381D01*
X152701524Y-70981381D02*
X152130095Y-70981381D01*
X152415809Y-70981381D02*
X152415809Y-69981381D01*
X152320571Y-70124238D01*
X152225333Y-70219476D01*
X152130095Y-70267095D01*
X126238095Y-106640381D02*
X126238095Y-107449905D01*
X126285714Y-107545143D01*
X126333333Y-107592762D01*
X126428571Y-107640381D01*
X126619048Y-107640381D01*
X126714286Y-107592762D01*
X126761905Y-107545143D01*
X126809524Y-107449905D01*
X126809524Y-106640381D01*
X127238095Y-106735619D02*
X127285714Y-106688000D01*
X127380952Y-106640381D01*
X127619048Y-106640381D01*
X127714286Y-106688000D01*
X127761905Y-106735619D01*
X127809524Y-106830857D01*
X127809524Y-106926095D01*
X127761905Y-107068952D01*
X127190476Y-107640381D01*
X127809524Y-107640381D01*
X171212381Y-102361905D02*
X172021905Y-102361905D01*
X172117143Y-102314286D01*
X172164762Y-102266667D01*
X172212381Y-102171429D01*
X172212381Y-101980952D01*
X172164762Y-101885714D01*
X172117143Y-101838095D01*
X172021905Y-101790476D01*
X171212381Y-101790476D01*
X171545714Y-100885714D02*
X172212381Y-100885714D01*
X171164762Y-101123810D02*
X171879048Y-101361905D01*
X171879048Y-100742857D01*
X125817334Y-82907143D02*
X125769715Y-82954762D01*
X125626858Y-83002381D01*
X125531620Y-83002381D01*
X125388762Y-82954762D01*
X125293524Y-82859524D01*
X125245905Y-82764286D01*
X125198286Y-82573810D01*
X125198286Y-82430952D01*
X125245905Y-82240476D01*
X125293524Y-82145238D01*
X125388762Y-82050000D01*
X125531620Y-82002381D01*
X125626858Y-82002381D01*
X125769715Y-82050000D01*
X125817334Y-82097619D01*
X126769715Y-83002381D02*
X126198286Y-83002381D01*
X126484000Y-83002381D02*
X126484000Y-82002381D01*
X126388762Y-82145238D01*
X126293524Y-82240476D01*
X126198286Y-82288095D01*
X125817334Y-92559143D02*
X125769715Y-92606762D01*
X125626858Y-92654381D01*
X125531620Y-92654381D01*
X125388762Y-92606762D01*
X125293524Y-92511524D01*
X125245905Y-92416286D01*
X125198286Y-92225810D01*
X125198286Y-92082952D01*
X125245905Y-91892476D01*
X125293524Y-91797238D01*
X125388762Y-91702000D01*
X125531620Y-91654381D01*
X125626858Y-91654381D01*
X125769715Y-91702000D01*
X125817334Y-91749619D01*
X126198286Y-91749619D02*
X126245905Y-91702000D01*
X126341143Y-91654381D01*
X126579239Y-91654381D01*
X126674477Y-91702000D01*
X126722096Y-91749619D01*
X126769715Y-91844857D01*
X126769715Y-91940095D01*
X126722096Y-92082952D01*
X126150667Y-92654381D01*
X126769715Y-92654381D01*
X129571809Y-80748190D02*
X129571809Y-81224381D01*
X129238476Y-80224381D02*
X129571809Y-80748190D01*
X129905143Y-80224381D01*
X130762286Y-81224381D02*
X130190857Y-81224381D01*
X130476571Y-81224381D02*
X130476571Y-80224381D01*
X130381333Y-80367238D01*
X130286095Y-80462476D01*
X130190857Y-80510095D01*
X118641905Y-97734381D02*
X118641905Y-96734381D01*
X119022858Y-96734381D01*
X119118096Y-96782000D01*
X119165715Y-96829619D01*
X119213334Y-96924857D01*
X119213334Y-97067714D01*
X119165715Y-97162952D01*
X119118096Y-97210571D01*
X119022858Y-97258190D01*
X118641905Y-97258190D01*
X120165715Y-97734381D02*
X119594286Y-97734381D01*
X119880000Y-97734381D02*
X119880000Y-96734381D01*
X119784762Y-96877238D01*
X119689524Y-96972476D01*
X119594286Y-97020095D01*
X202461905Y-58872381D02*
X202461905Y-57872381D01*
X202842858Y-57872381D01*
X202938096Y-57920000D01*
X202985715Y-57967619D01*
X203033334Y-58062857D01*
X203033334Y-58205714D01*
X202985715Y-58300952D01*
X202938096Y-58348571D01*
X202842858Y-58396190D01*
X202461905Y-58396190D01*
X203414286Y-57967619D02*
X203461905Y-57920000D01*
X203557143Y-57872381D01*
X203795239Y-57872381D01*
X203890477Y-57920000D01*
X203938096Y-57967619D01*
X203985715Y-58062857D01*
X203985715Y-58158095D01*
X203938096Y-58300952D01*
X203366667Y-58872381D01*
X203985715Y-58872381D01*
X118387905Y-63190381D02*
X118387905Y-62190381D01*
X118768858Y-62190381D01*
X118864096Y-62238000D01*
X118911715Y-62285619D01*
X118959334Y-62380857D01*
X118959334Y-62523714D01*
X118911715Y-62618952D01*
X118864096Y-62666571D01*
X118768858Y-62714190D01*
X118387905Y-62714190D01*
X119292667Y-62190381D02*
X119911715Y-62190381D01*
X119578381Y-62571333D01*
X119721239Y-62571333D01*
X119816477Y-62618952D01*
X119864096Y-62666571D01*
X119911715Y-62761810D01*
X119911715Y-62999905D01*
X119864096Y-63095143D01*
X119816477Y-63142762D01*
X119721239Y-63190381D01*
X119435524Y-63190381D01*
X119340286Y-63142762D01*
X119292667Y-63095143D01*
X202461905Y-101290381D02*
X202461905Y-100290381D01*
X202842858Y-100290381D01*
X202938096Y-100338000D01*
X202985715Y-100385619D01*
X203033334Y-100480857D01*
X203033334Y-100623714D01*
X202985715Y-100718952D01*
X202938096Y-100766571D01*
X202842858Y-100814190D01*
X202461905Y-100814190D01*
X203890477Y-100623714D02*
X203890477Y-101290381D01*
X203652381Y-100242762D02*
X203414286Y-100957048D01*
X204033334Y-100957048D01*
X175514095Y-77814381D02*
X175514095Y-78623905D01*
X175561714Y-78719143D01*
X175609333Y-78766762D01*
X175704571Y-78814381D01*
X175895048Y-78814381D01*
X175990286Y-78766762D01*
X176037905Y-78719143D01*
X176085524Y-78623905D01*
X176085524Y-77814381D01*
X176466476Y-77814381D02*
X177085524Y-77814381D01*
X176752190Y-78195333D01*
X176895048Y-78195333D01*
X176990286Y-78242952D01*
X177037905Y-78290571D01*
X177085524Y-78385810D01*
X177085524Y-78623905D01*
X177037905Y-78719143D01*
X176990286Y-78766762D01*
X176895048Y-78814381D01*
X176609333Y-78814381D01*
X176514095Y-78766762D01*
X176466476Y-78719143D01*
M02*
