M48
;DRILL file {pcbnew (after 2015-mar-04 BZR unknown)-product} date 04.07.2015 19:27:02
;FORMAT={-:-/ absolute / inch / decimal}
FMAT,2
INCH,TZ
T1C0.016
T2C0.040
T3C0.047
T4C0.051
T5C0.138
%
G90
G05
M72
T1
X4.78Y-4.34
X4.78Y-4.4
X4.78Y-4.46
X4.94Y-4.34
X4.94Y-4.46
X4.96Y-3.44
X5.04Y-2.5
X5.04Y-3.06
X5.075Y-2.8
X5.1Y-2.725
X5.1Y-2.825
X5.16Y-2.88
X5.19Y-2.91
X5.36Y-3.24
X5.36Y-3.28
X5.38Y-2.94
X5.4Y-3.32
X5.4Y-4.32
X5.41Y-2.97
X5.43Y-3.34
X5.44Y-3.
X5.47Y-2.96
X5.5Y-2.76
X5.5Y-4.4
X5.52Y-2.8
X5.53Y-4.43
X5.55Y-2.48
X5.62Y-3.02
X5.63Y-4.61
X5.64Y-3.22
X5.64Y-3.26
X5.64Y-4.52
X5.65Y-2.48
X5.66Y-2.98
X5.66Y-3.02
X5.68Y-3.58
X5.68Y-4.52
X5.72Y-3.
X5.72Y-3.58
X5.72Y-4.51
X5.73Y-4.63
X5.74Y-4.48
X5.75Y-2.48
X5.76Y-3.26
X5.76Y-3.38
X5.76Y-4.45
X5.76Y-4.56
X5.78Y-4.42
X5.8Y-2.7
X5.8Y-4.39
X5.81Y-2.91
X5.82Y-2.67
X5.82Y-4.36
X5.84Y-2.64
X5.84Y-2.73
X5.84Y-2.92
X5.84Y-4.33
X5.85Y-2.48
X5.86Y-4.3
X5.88Y-2.92
X5.88Y-3.5
X5.9Y-3.58
X5.9Y-3.78
X5.92Y-2.92
X5.93Y-3.81
X5.94Y-3.58
X5.95Y-4.19
X5.96Y-3.84
X5.98Y-3.5
X5.99Y-3.87
X6.02Y-3.9
X6.05Y-4.19
X6.06Y-2.92
X6.06Y-3.58
X6.1Y-2.92
X6.1Y-3.58
X6.12Y-4.
X6.15Y-4.19
X6.16Y-4.04
X6.18Y-3.14
X6.2Y-4.08
X6.21Y-3.03
X6.22Y-2.9
X6.22Y-3.4
X6.23Y-3.74
X6.25Y-4.23
X6.26Y-2.9
X6.26Y-3.58
X6.26Y-3.76
X6.27Y-4.12
X6.28Y-4.39
X6.3Y-3.58
X6.31Y-2.7
X6.32Y-2.96
X6.32Y-3.2
X6.32Y-3.36
X6.32Y-3.76
X6.33Y-2.67
X6.33Y-3.24
X6.33Y-4.51
X6.34Y-3.5
X6.35Y-2.64
X6.35Y-2.73
X6.35Y-3.73
X6.38Y-4.36
X6.4Y-2.85
X6.43Y-4.48
X6.44Y-2.88
X6.46Y-3.62
X6.46Y-3.84
X6.47Y-3.
X6.47Y-3.06
X6.47Y-3.4
X6.48Y-4.33
X6.5Y-3.6
X6.5Y-3.82
X6.5Y-3.92
X6.52Y-3.96
X6.53Y-3.24
X6.53Y-4.45
X6.54Y-3.58
X6.54Y-3.8
X6.54Y-4.
X6.56Y-3.21
X6.56Y-4.04
X6.58Y-3.25
X6.58Y-3.56
X6.58Y-3.78
X6.58Y-4.3
X6.59Y-3.18
X6.6Y-3.4
X6.62Y-3.23
X6.62Y-3.54
X6.63Y-4.42
X6.65Y-3.2
X6.66Y-3.52
X6.68Y-3.23
X6.69Y-3.32
X6.7Y-3.5
X6.71Y-3.26
X6.74Y-3.48
X6.78Y-3.98
X6.82Y-3.5
X6.83Y-3.11
X6.84Y-2.96
X6.9Y-3.14
X6.93Y-3.56
X6.94Y-3.14
X6.98Y-3.94
X6.98Y-4.17
X7.Y-2.96
X7.01Y-3.51
X7.02Y-3.56
X7.02Y-3.97
X7.05Y-2.66
X7.05Y-3.46
X7.08Y-2.96
X7.08Y-3.
X7.09Y-3.19
X7.12Y-3.12
X7.12Y-3.49
X7.12Y-3.97
X7.13Y-4.04
X7.13Y-4.14
X7.14Y-3.94
X7.15Y-3.1
X7.15Y-3.51
X7.18Y-3.08
X7.18Y-3.53
X7.21Y-3.06
X7.21Y-3.55
X7.24Y-3.63
X7.25Y-3.13
X7.27Y-3.6
X7.28Y-4.14
X7.5Y-2.8
X7.5Y-2.9
X7.5Y-3.
X7.5Y-3.1
X7.5Y-3.2
X7.5Y-3.3
X7.5Y-3.4
X7.5Y-3.5
X7.76Y-4.04
X7.76Y-4.14
X7.76Y-4.24
X7.76Y-4.34
X7.8Y-2.7
T2
X5.Y-4.7
X5.Y-4.8
X5.1Y-4.7
X5.1Y-4.8
X5.2Y-4.7
X5.2Y-4.8
X5.4Y-2.3
X5.4Y-2.4
X5.4Y-4.7
X5.4Y-4.8
X5.5Y-2.3
X5.5Y-2.4
X5.5Y-4.7
X5.5Y-4.8
X5.6Y-2.3
X5.6Y-2.4
X5.6Y-4.7
X5.6Y-4.8
X5.7Y-2.3
X5.7Y-2.4
X5.7Y-4.7
X5.7Y-4.8
X5.8Y-2.3
X5.8Y-2.4
X5.8Y-4.7
X5.8Y-4.8
X5.9Y-2.3
X5.9Y-2.4
X5.9Y-4.7
X5.9Y-4.8
X6.Y-2.3
X6.Y-2.4
X6.Y-4.7
X6.Y-4.8
X6.1Y-2.3
X6.1Y-2.4
X6.1Y-4.7
X6.1Y-4.8
X6.2Y-2.3
X6.2Y-2.4
X6.2Y-4.7
X6.2Y-4.8
X6.3Y-2.3
X6.3Y-2.4
X6.3Y-4.7
X6.3Y-4.8
X6.4Y-2.3
X6.4Y-2.4
X6.4Y-4.7
X6.4Y-4.8
X6.5Y-2.3
X6.5Y-2.4
X6.5Y-4.7
X6.5Y-4.8
X6.6Y-2.3
X6.6Y-2.4
X6.6Y-4.7
X6.6Y-4.8
X6.7Y-2.3
X6.7Y-2.4
X6.7Y-4.7
X6.7Y-4.8
X6.8Y-2.3
X6.8Y-2.4
X6.8Y-4.7
X6.8Y-4.8
X6.9Y-2.3
X6.9Y-2.4
X6.9Y-4.7
X6.9Y-4.8
X7.Y-2.3
X7.Y-2.4
X7.Y-4.7
X7.Y-4.8
X7.1Y-2.3
X7.1Y-2.4
X7.1Y-4.7
X7.1Y-4.8
X7.2Y-2.3
X7.2Y-2.4
X7.2Y-4.7
X7.2Y-4.8
X7.3Y-2.3
X7.3Y-2.4
X7.3Y-3.8
X7.3Y-4.7
X7.3Y-4.8
X7.4Y-3.8
X7.5Y-3.8
X7.6Y-3.8
T3
X5.12Y-3.3439
X5.12Y-3.5361
T4
X4.7Y-2.6
X4.7Y-2.75
X4.7Y-2.9
X4.7Y-3.05
X4.7Y-3.2
X4.7Y-3.975
X4.7Y-4.125
X8.Y-2.425
X8.Y-2.575
X8.Y-2.725
X8.Y-2.875
X8.Y-3.025
X8.Y-3.175
X8.Y-3.325
X8.Y-3.475
X8.Y-3.625
X8.Y-3.775
X8.Y-4.1
X8.Y-4.25
X8.Y-4.4
X8.Y-4.55
X8.Y-4.7
T5
X4.6Y-2.3
X4.6Y-4.8
X7.7Y-2.3
X7.7Y-4.8
T0
M30
