G04 #@! TF.FileFunction,Soldermask,Bot*
%FSLAX46Y46*%
G04 Gerber Fmt 4.6, Leading zero omitted, Abs format (unit mm)*
G04 Created by KiCad (PCBNEW (after 2015-mar-04 BZR unknown)-product) date 23.07.2015 21:04:28*
%MOMM*%
G01*
G04 APERTURE LIST*
%ADD10C,0.100000*%
%ADD11R,1.727200X1.727200*%
%ADD12O,1.727200X1.727200*%
%ADD13R,1.727200X2.032000*%
%ADD14O,1.727200X2.032000*%
%ADD15R,1.000000X1.250000*%
%ADD16O,2.499360X1.998980*%
%ADD17C,2.500000*%
G04 APERTURE END LIST*
D10*
D11*
X127000000Y-121920000D03*
D12*
X127000000Y-119380000D03*
X129540000Y-121920000D03*
X129540000Y-119380000D03*
X132080000Y-121920000D03*
X132080000Y-119380000D03*
D11*
X137160000Y-121920000D03*
D12*
X137160000Y-119380000D03*
X139700000Y-121920000D03*
X139700000Y-119380000D03*
X142240000Y-121920000D03*
X142240000Y-119380000D03*
X144780000Y-121920000D03*
X144780000Y-119380000D03*
X147320000Y-121920000D03*
X147320000Y-119380000D03*
X149860000Y-121920000D03*
X149860000Y-119380000D03*
X152400000Y-121920000D03*
X152400000Y-119380000D03*
X154940000Y-121920000D03*
X154940000Y-119380000D03*
X157480000Y-121920000D03*
X157480000Y-119380000D03*
X160020000Y-121920000D03*
X160020000Y-119380000D03*
X162560000Y-121920000D03*
X162560000Y-119380000D03*
X165100000Y-121920000D03*
X165100000Y-119380000D03*
X167640000Y-121920000D03*
X167640000Y-119380000D03*
X170180000Y-121920000D03*
X170180000Y-119380000D03*
X172720000Y-121920000D03*
X172720000Y-119380000D03*
X175260000Y-121920000D03*
X175260000Y-119380000D03*
X177800000Y-121920000D03*
X177800000Y-119380000D03*
X180340000Y-121920000D03*
X180340000Y-119380000D03*
X182880000Y-121920000D03*
X182880000Y-119380000D03*
X185420000Y-121920000D03*
X185420000Y-119380000D03*
D11*
X137160000Y-60960000D03*
D12*
X137160000Y-58420000D03*
X139700000Y-60960000D03*
X139700000Y-58420000D03*
X142240000Y-60960000D03*
X142240000Y-58420000D03*
X144780000Y-60960000D03*
X144780000Y-58420000D03*
X147320000Y-60960000D03*
X147320000Y-58420000D03*
X149860000Y-60960000D03*
X149860000Y-58420000D03*
X152400000Y-60960000D03*
X152400000Y-58420000D03*
X154940000Y-60960000D03*
X154940000Y-58420000D03*
X157480000Y-60960000D03*
X157480000Y-58420000D03*
X160020000Y-60960000D03*
X160020000Y-58420000D03*
X162560000Y-60960000D03*
X162560000Y-58420000D03*
X165100000Y-60960000D03*
X165100000Y-58420000D03*
X167640000Y-60960000D03*
X167640000Y-58420000D03*
X170180000Y-60960000D03*
X170180000Y-58420000D03*
X172720000Y-60960000D03*
X172720000Y-58420000D03*
X175260000Y-60960000D03*
X175260000Y-58420000D03*
X177800000Y-60960000D03*
X177800000Y-58420000D03*
X180340000Y-60960000D03*
X180340000Y-58420000D03*
X182880000Y-60960000D03*
X182880000Y-58420000D03*
X185420000Y-60960000D03*
X185420000Y-58420000D03*
D13*
X185420000Y-96520000D03*
D14*
X187960000Y-96520000D03*
X190500000Y-96520000D03*
X193040000Y-96520000D03*
D15*
X156988000Y-78232000D03*
X158988000Y-78232000D03*
X152924000Y-78232000D03*
X154924000Y-78232000D03*
X148860000Y-78232000D03*
X150860000Y-78232000D03*
X144796000Y-78232000D03*
X146796000Y-78232000D03*
X156988000Y-81280000D03*
X158988000Y-81280000D03*
X144796000Y-84328000D03*
X146796000Y-84328000D03*
X158988000Y-84328000D03*
X156988000Y-84328000D03*
X146796000Y-87376000D03*
X144796000Y-87376000D03*
X150860000Y-87376000D03*
X148860000Y-87376000D03*
X154924000Y-87376000D03*
X152924000Y-87376000D03*
X158988000Y-87376000D03*
X156988000Y-87376000D03*
X144796000Y-81280000D03*
X146796000Y-81280000D03*
X152892000Y-81280000D03*
X150892000Y-81280000D03*
X152892000Y-84328000D03*
X150892000Y-84328000D03*
D16*
X130048000Y-84935060D03*
X130048000Y-89816940D03*
D17*
X119380000Y-100965000D03*
X119380000Y-104775000D03*
X203200000Y-95885000D03*
X203200000Y-92075000D03*
X203200000Y-88265000D03*
X203200000Y-84455000D03*
X203200000Y-80645000D03*
X203200000Y-76835000D03*
X203200000Y-73025000D03*
X203200000Y-69215000D03*
X203200000Y-65405000D03*
X203200000Y-61595000D03*
X119380000Y-66040000D03*
X119380000Y-69850000D03*
X119380000Y-73660000D03*
X119380000Y-77470000D03*
X119380000Y-81280000D03*
X203200000Y-119380000D03*
X203200000Y-115570000D03*
X203200000Y-111760000D03*
X203200000Y-107950000D03*
X203200000Y-104140000D03*
M02*
