M48
;DRILL file {pcbnew (after 2015-mar-04 BZR unknown)-product} date 23.07.2015 21:05:01
;FORMAT={-:-/ absolute / inch / decimal}
FMAT,2
INCH,TZ
T1C0.016
T2C0.040
T3C0.138
%
G90
G05
M72
T1
X1.85Y-3.65
X2.02Y-4.6
X2.04Y-2.9
X2.04Y-4.2
X2.2Y-3.65
X2.24Y-4.4
X2.45Y-3.15
X2.45Y-3.65
X2.68Y-2.9
X2.68Y-4.3
X2.68Y-4.54
X2.8Y-3.65
X3.04Y-4.47
X3.05Y-2.72
X3.06Y-2.69
X3.07Y-2.66
X3.08Y-2.63
X3.15Y-2.53
X3.15Y-4.1
X3.15Y-4.2
X3.24Y-2.9
X3.24Y-3.2
X3.25Y-2.53
X3.25Y-4.
X3.25Y-4.2
X3.35Y-2.53
X3.35Y-3.9
X3.35Y-4.2
X3.4Y-4.2
X3.43Y-3.82
X3.43Y-4.12
X3.45Y-2.53
X3.55Y-2.53
X3.58Y-4.46
X3.65Y-2.53
X3.75Y-2.53
X3.85Y-2.53
X3.9Y-2.9
X3.9Y-3.2
X3.92Y-2.78
X3.94Y-2.75
X3.95Y-2.53
X3.96Y-2.72
X3.98Y-2.69
X4.Y-2.66
X4.08Y-2.53
X4.17Y-2.51
X4.32Y-4.1
X4.32Y-4.3
X4.36Y-2.9
X4.36Y-3.2
X4.42Y-2.72
X4.45Y-2.7
X4.48Y-2.68
X4.51Y-2.66
X4.53Y-4.51
X4.54Y-2.64
X4.54Y-4.4
X4.56Y-4.54
X4.57Y-2.62
X4.59Y-4.57
X4.62Y-4.6
X4.79Y-2.52
X4.82Y-2.5
X4.85Y-2.48
X4.92Y-4.34
X4.98Y-2.9
X4.98Y-3.2
X5.09Y-4.34
X5.2Y-4.34
X5.2Y-4.56
T2
X1.7Y-2.8
X1.7Y-2.9
X1.7Y-3.
X1.7Y-3.1
X1.7Y-3.2
X1.7Y-3.3
X1.7Y-3.4
X1.7Y-3.5
X1.7Y-3.6
X1.7Y-3.7
X1.7Y-3.8
X1.7Y-3.9
X1.7Y-4.
X1.7Y-4.1
X1.7Y-4.2
X1.7Y-4.3
X1.8Y-2.8
X1.8Y-2.9
X1.8Y-3.
X1.8Y-3.1
X1.8Y-3.2
X1.8Y-3.3
X1.8Y-3.4
X1.8Y-3.5
X1.8Y-3.6
X1.8Y-3.7
X1.8Y-3.8
X1.8Y-3.9
X1.8Y-4.
X1.8Y-4.1
X1.8Y-4.2
X1.8Y-4.3
X2.2Y-4.7
X2.2Y-4.8
X2.3Y-2.8
X2.3Y-2.9
X2.3Y-3.
X2.3Y-3.1
X2.3Y-3.2
X2.3Y-3.3
X2.3Y-3.4
X2.3Y-3.5
X2.3Y-3.6
X2.3Y-3.7
X2.3Y-3.8
X2.3Y-3.9
X2.3Y-4.
X2.3Y-4.1
X2.3Y-4.2
X2.3Y-4.3
X2.3Y-4.7
X2.3Y-4.8
X2.4Y-2.8
X2.4Y-2.9
X2.4Y-3.
X2.4Y-3.1
X2.4Y-3.2
X2.4Y-3.3
X2.4Y-3.4
X2.4Y-3.5
X2.4Y-3.6
X2.4Y-3.7
X2.4Y-3.8
X2.4Y-3.9
X2.4Y-4.
X2.4Y-4.1
X2.4Y-4.2
X2.4Y-4.3
X2.4Y-4.7
X2.4Y-4.8
X2.6Y-2.3
X2.6Y-2.4
X2.6Y-4.7
X2.6Y-4.8
X2.7Y-2.3
X2.7Y-2.4
X2.7Y-4.7
X2.7Y-4.8
X2.8Y-2.3
X2.8Y-2.4
X2.8Y-4.7
X2.8Y-4.8
X2.9Y-2.3
X2.9Y-2.4
X2.9Y-2.8
X2.9Y-2.9
X2.9Y-3.
X2.9Y-3.1
X2.9Y-3.2
X2.9Y-3.3
X2.9Y-3.4
X2.9Y-3.5
X2.9Y-3.6
X2.9Y-3.7
X2.9Y-3.8
X2.9Y-3.9
X2.9Y-4.
X2.9Y-4.1
X2.9Y-4.2
X2.9Y-4.3
X2.9Y-4.7
X2.9Y-4.8
X3.Y-2.3
X3.Y-2.4
X3.Y-2.8
X3.Y-2.9
X3.Y-3.
X3.Y-3.1
X3.Y-3.2
X3.Y-3.3
X3.Y-3.4
X3.Y-3.5
X3.Y-3.6
X3.Y-3.7
X3.Y-3.8
X3.Y-3.9
X3.Y-4.
X3.Y-4.1
X3.Y-4.2
X3.Y-4.3
X3.Y-4.7
X3.Y-4.8
X3.1Y-2.3
X3.1Y-2.4
X3.1Y-4.7
X3.1Y-4.8
X3.2Y-2.3
X3.2Y-2.4
X3.2Y-4.7
X3.2Y-4.8
X3.3Y-2.3
X3.3Y-2.4
X3.3Y-4.7
X3.3Y-4.8
X3.4Y-2.3
X3.4Y-2.4
X3.4Y-4.7
X3.4Y-4.8
X3.5Y-2.3
X3.5Y-2.4
X3.5Y-2.8
X3.5Y-2.9
X3.5Y-3.
X3.5Y-3.1
X3.5Y-3.2
X3.5Y-3.3
X3.5Y-3.4
X3.5Y-3.5
X3.5Y-3.6
X3.5Y-3.7
X3.5Y-3.8
X3.5Y-3.9
X3.5Y-4.
X3.5Y-4.1
X3.5Y-4.2
X3.5Y-4.3
X3.5Y-4.7
X3.5Y-4.8
X3.6Y-2.3
X3.6Y-2.4
X3.6Y-2.8
X3.6Y-2.9
X3.6Y-3.
X3.6Y-3.1
X3.6Y-3.2
X3.6Y-3.3
X3.6Y-3.4
X3.6Y-3.5
X3.6Y-3.6
X3.6Y-3.7
X3.6Y-3.8
X3.6Y-3.9
X3.6Y-4.
X3.6Y-4.1
X3.6Y-4.2
X3.6Y-4.3
X3.6Y-4.7
X3.6Y-4.8
X3.7Y-2.3
X3.7Y-2.4
X3.7Y-4.7
X3.7Y-4.8
X3.8Y-2.3
X3.8Y-2.4
X3.8Y-4.7
X3.8Y-4.8
X3.9Y-2.3
X3.9Y-2.4
X3.9Y-4.7
X3.9Y-4.8
X4.Y-2.3
X4.Y-2.4
X4.Y-4.7
X4.Y-4.8
X4.1Y-2.3
X4.1Y-2.4
X4.1Y-2.8
X4.1Y-2.9
X4.1Y-3.
X4.1Y-3.1
X4.1Y-3.2
X4.1Y-3.3
X4.1Y-3.4
X4.1Y-3.5
X4.1Y-3.6
X4.1Y-3.7
X4.1Y-3.8
X4.1Y-3.9
X4.1Y-4.
X4.1Y-4.1
X4.1Y-4.2
X4.1Y-4.3
X4.1Y-4.7
X4.1Y-4.8
X4.2Y-2.3
X4.2Y-2.4
X4.2Y-2.8
X4.2Y-2.9
X4.2Y-3.
X4.2Y-3.1
X4.2Y-3.2
X4.2Y-3.3
X4.2Y-3.4
X4.2Y-3.5
X4.2Y-3.6
X4.2Y-3.7
X4.2Y-3.8
X4.2Y-3.9
X4.2Y-4.
X4.2Y-4.1
X4.2Y-4.2
X4.2Y-4.3
X4.2Y-4.7
X4.2Y-4.8
X4.3Y-2.3
X4.3Y-2.4
X4.3Y-4.7
X4.3Y-4.8
X4.4Y-2.3
X4.4Y-2.4
X4.4Y-4.7
X4.4Y-4.8
X4.5Y-2.3
X4.5Y-2.4
X4.5Y-4.7
X4.5Y-4.8
X4.7Y-2.8
X4.7Y-2.9
X4.7Y-3.
X4.7Y-3.1
X4.7Y-3.2
X4.7Y-3.3
X4.7Y-3.4
X4.7Y-3.5
X4.7Y-3.6
X4.7Y-3.7
X4.7Y-3.8
X4.7Y-3.9
X4.7Y-4.
X4.7Y-4.1
X4.7Y-4.2
X4.7Y-4.3
X4.8Y-2.8
X4.8Y-2.9
X4.8Y-3.
X4.8Y-3.1
X4.8Y-3.2
X4.8Y-3.3
X4.8Y-3.4
X4.8Y-3.5
X4.8Y-3.6
X4.8Y-3.7
X4.8Y-3.8
X4.8Y-3.9
X4.8Y-4.
X4.8Y-4.1
X4.8Y-4.2
X4.8Y-4.3
X5.3Y-2.8
X5.3Y-2.9
X5.3Y-3.
X5.3Y-3.1
X5.3Y-3.2
X5.3Y-3.3
X5.3Y-3.4
X5.3Y-3.5
X5.3Y-3.6
X5.3Y-3.7
X5.3Y-3.8
X5.3Y-3.9
X5.3Y-4.
X5.3Y-4.1
X5.3Y-4.2
X5.3Y-4.3
X5.4Y-2.8
X5.4Y-2.9
X5.4Y-3.
X5.4Y-3.1
X5.4Y-3.2
X5.4Y-3.3
X5.4Y-3.4
X5.4Y-3.5
X5.4Y-3.6
X5.4Y-3.7
X5.4Y-3.8
X5.4Y-3.9
X5.4Y-4.
X5.4Y-4.1
X5.4Y-4.2
X5.4Y-4.3
T3
X1.8Y-2.3
X1.8Y-4.8
X4.9Y-2.3
X4.9Y-4.8
T0
M30
