G04 #@! TF.FileFunction,Soldermask,Bot*
%FSLAX46Y46*%
G04 Gerber Fmt 4.6, Leading zero omitted, Abs format (unit mm)*
G04 Created by KiCad (PCBNEW (after 2015-mar-04 BZR unknown)-product) date 03.06.2015 18:32:18*
%MOMM*%
G01*
G04 APERTURE LIST*
%ADD10C,0.100000*%
%ADD11R,1.727200X1.727200*%
%ADD12O,1.727200X1.727200*%
G04 APERTURE END LIST*
D10*
D11*
X66040000Y-121920000D03*
D12*
X66040000Y-119380000D03*
X68580000Y-121920000D03*
X68580000Y-119380000D03*
X71120000Y-121920000D03*
X71120000Y-119380000D03*
X73660000Y-121920000D03*
X73660000Y-119380000D03*
X76200000Y-121920000D03*
X76200000Y-119380000D03*
X78740000Y-121920000D03*
X78740000Y-119380000D03*
X81280000Y-121920000D03*
X81280000Y-119380000D03*
X83820000Y-121920000D03*
X83820000Y-119380000D03*
X86360000Y-121920000D03*
X86360000Y-119380000D03*
X88900000Y-121920000D03*
X88900000Y-119380000D03*
X91440000Y-121920000D03*
X91440000Y-119380000D03*
X93980000Y-121920000D03*
X93980000Y-119380000D03*
X96520000Y-121920000D03*
X96520000Y-119380000D03*
X99060000Y-121920000D03*
X99060000Y-119380000D03*
X101600000Y-121920000D03*
X101600000Y-119380000D03*
X104140000Y-121920000D03*
X104140000Y-119380000D03*
X106680000Y-121920000D03*
X106680000Y-119380000D03*
X109220000Y-121920000D03*
X109220000Y-119380000D03*
X111760000Y-121920000D03*
X111760000Y-119380000D03*
X114300000Y-121920000D03*
X114300000Y-119380000D03*
D11*
X66040000Y-60960000D03*
D12*
X66040000Y-58420000D03*
X68580000Y-60960000D03*
X68580000Y-58420000D03*
X71120000Y-60960000D03*
X71120000Y-58420000D03*
X73660000Y-60960000D03*
X73660000Y-58420000D03*
X76200000Y-60960000D03*
X76200000Y-58420000D03*
X78740000Y-60960000D03*
X78740000Y-58420000D03*
X81280000Y-60960000D03*
X81280000Y-58420000D03*
X83820000Y-60960000D03*
X83820000Y-58420000D03*
X86360000Y-60960000D03*
X86360000Y-58420000D03*
X88900000Y-60960000D03*
X88900000Y-58420000D03*
X91440000Y-60960000D03*
X91440000Y-58420000D03*
X93980000Y-60960000D03*
X93980000Y-58420000D03*
X96520000Y-60960000D03*
X96520000Y-58420000D03*
X99060000Y-60960000D03*
X99060000Y-58420000D03*
X101600000Y-60960000D03*
X101600000Y-58420000D03*
X104140000Y-60960000D03*
X104140000Y-58420000D03*
X106680000Y-60960000D03*
X106680000Y-58420000D03*
X109220000Y-60960000D03*
X109220000Y-58420000D03*
X111760000Y-60960000D03*
X111760000Y-58420000D03*
X114300000Y-60960000D03*
X114300000Y-58420000D03*
D11*
X43180000Y-109220000D03*
D12*
X45720000Y-109220000D03*
X43180000Y-106680000D03*
X45720000Y-106680000D03*
X43180000Y-104140000D03*
X45720000Y-104140000D03*
X43180000Y-101600000D03*
X45720000Y-101600000D03*
X43180000Y-99060000D03*
X45720000Y-99060000D03*
X43180000Y-96520000D03*
X45720000Y-96520000D03*
X43180000Y-93980000D03*
X45720000Y-93980000D03*
X43180000Y-91440000D03*
X45720000Y-91440000D03*
X43180000Y-88900000D03*
X45720000Y-88900000D03*
X43180000Y-86360000D03*
X45720000Y-86360000D03*
X43180000Y-83820000D03*
X45720000Y-83820000D03*
X43180000Y-81280000D03*
X45720000Y-81280000D03*
X43180000Y-78740000D03*
X45720000Y-78740000D03*
X43180000Y-76200000D03*
X45720000Y-76200000D03*
X43180000Y-73660000D03*
X45720000Y-73660000D03*
X43180000Y-71120000D03*
X45720000Y-71120000D03*
D11*
X58420000Y-109220000D03*
D12*
X60960000Y-109220000D03*
X58420000Y-106680000D03*
X60960000Y-106680000D03*
X58420000Y-104140000D03*
X60960000Y-104140000D03*
X58420000Y-101600000D03*
X60960000Y-101600000D03*
X58420000Y-99060000D03*
X60960000Y-99060000D03*
X58420000Y-96520000D03*
X60960000Y-96520000D03*
X58420000Y-93980000D03*
X60960000Y-93980000D03*
X58420000Y-91440000D03*
X60960000Y-91440000D03*
X58420000Y-88900000D03*
X60960000Y-88900000D03*
X58420000Y-86360000D03*
X60960000Y-86360000D03*
X58420000Y-83820000D03*
X60960000Y-83820000D03*
X58420000Y-81280000D03*
X60960000Y-81280000D03*
X58420000Y-78740000D03*
X60960000Y-78740000D03*
X58420000Y-76200000D03*
X60960000Y-76200000D03*
X58420000Y-73660000D03*
X60960000Y-73660000D03*
X58420000Y-71120000D03*
X60960000Y-71120000D03*
D11*
X73660000Y-109220000D03*
D12*
X76200000Y-109220000D03*
X73660000Y-106680000D03*
X76200000Y-106680000D03*
X73660000Y-104140000D03*
X76200000Y-104140000D03*
X73660000Y-101600000D03*
X76200000Y-101600000D03*
X73660000Y-99060000D03*
X76200000Y-99060000D03*
X73660000Y-96520000D03*
X76200000Y-96520000D03*
X73660000Y-93980000D03*
X76200000Y-93980000D03*
X73660000Y-91440000D03*
X76200000Y-91440000D03*
X73660000Y-88900000D03*
X76200000Y-88900000D03*
X73660000Y-86360000D03*
X76200000Y-86360000D03*
X73660000Y-83820000D03*
X76200000Y-83820000D03*
X73660000Y-81280000D03*
X76200000Y-81280000D03*
X73660000Y-78740000D03*
X76200000Y-78740000D03*
X73660000Y-76200000D03*
X76200000Y-76200000D03*
X73660000Y-73660000D03*
X76200000Y-73660000D03*
X73660000Y-71120000D03*
X76200000Y-71120000D03*
D11*
X88900000Y-109220000D03*
D12*
X91440000Y-109220000D03*
X88900000Y-106680000D03*
X91440000Y-106680000D03*
X88900000Y-104140000D03*
X91440000Y-104140000D03*
X88900000Y-101600000D03*
X91440000Y-101600000D03*
X88900000Y-99060000D03*
X91440000Y-99060000D03*
X88900000Y-96520000D03*
X91440000Y-96520000D03*
X88900000Y-93980000D03*
X91440000Y-93980000D03*
X88900000Y-91440000D03*
X91440000Y-91440000D03*
X88900000Y-88900000D03*
X91440000Y-88900000D03*
X88900000Y-86360000D03*
X91440000Y-86360000D03*
X88900000Y-83820000D03*
X91440000Y-83820000D03*
X88900000Y-81280000D03*
X91440000Y-81280000D03*
X88900000Y-78740000D03*
X91440000Y-78740000D03*
X88900000Y-76200000D03*
X91440000Y-76200000D03*
X88900000Y-73660000D03*
X91440000Y-73660000D03*
X88900000Y-71120000D03*
X91440000Y-71120000D03*
D11*
X104140000Y-109220000D03*
D12*
X106680000Y-109220000D03*
X104140000Y-106680000D03*
X106680000Y-106680000D03*
X104140000Y-104140000D03*
X106680000Y-104140000D03*
X104140000Y-101600000D03*
X106680000Y-101600000D03*
X104140000Y-99060000D03*
X106680000Y-99060000D03*
X104140000Y-96520000D03*
X106680000Y-96520000D03*
X104140000Y-93980000D03*
X106680000Y-93980000D03*
X104140000Y-91440000D03*
X106680000Y-91440000D03*
X104140000Y-88900000D03*
X106680000Y-88900000D03*
X104140000Y-86360000D03*
X106680000Y-86360000D03*
X104140000Y-83820000D03*
X106680000Y-83820000D03*
X104140000Y-81280000D03*
X106680000Y-81280000D03*
X104140000Y-78740000D03*
X106680000Y-78740000D03*
X104140000Y-76200000D03*
X106680000Y-76200000D03*
X104140000Y-73660000D03*
X106680000Y-73660000D03*
X104140000Y-71120000D03*
X106680000Y-71120000D03*
D11*
X119380000Y-109220000D03*
D12*
X121920000Y-109220000D03*
X119380000Y-106680000D03*
X121920000Y-106680000D03*
X119380000Y-104140000D03*
X121920000Y-104140000D03*
X119380000Y-101600000D03*
X121920000Y-101600000D03*
X119380000Y-99060000D03*
X121920000Y-99060000D03*
X119380000Y-96520000D03*
X121920000Y-96520000D03*
X119380000Y-93980000D03*
X121920000Y-93980000D03*
X119380000Y-91440000D03*
X121920000Y-91440000D03*
X119380000Y-88900000D03*
X121920000Y-88900000D03*
X119380000Y-86360000D03*
X121920000Y-86360000D03*
X119380000Y-83820000D03*
X121920000Y-83820000D03*
X119380000Y-81280000D03*
X121920000Y-81280000D03*
X119380000Y-78740000D03*
X121920000Y-78740000D03*
X119380000Y-76200000D03*
X121920000Y-76200000D03*
X119380000Y-73660000D03*
X121920000Y-73660000D03*
X119380000Y-71120000D03*
X121920000Y-71120000D03*
D11*
X55880000Y-121920000D03*
D12*
X55880000Y-119380000D03*
X58420000Y-121920000D03*
X58420000Y-119380000D03*
X60960000Y-121920000D03*
X60960000Y-119380000D03*
D11*
X134620000Y-109220000D03*
D12*
X137160000Y-109220000D03*
X134620000Y-106680000D03*
X137160000Y-106680000D03*
X134620000Y-104140000D03*
X137160000Y-104140000D03*
X134620000Y-101600000D03*
X137160000Y-101600000D03*
X134620000Y-99060000D03*
X137160000Y-99060000D03*
X134620000Y-96520000D03*
X137160000Y-96520000D03*
X134620000Y-93980000D03*
X137160000Y-93980000D03*
X134620000Y-91440000D03*
X137160000Y-91440000D03*
X134620000Y-88900000D03*
X137160000Y-88900000D03*
X134620000Y-86360000D03*
X137160000Y-86360000D03*
X134620000Y-83820000D03*
X137160000Y-83820000D03*
X134620000Y-81280000D03*
X137160000Y-81280000D03*
X134620000Y-78740000D03*
X137160000Y-78740000D03*
X134620000Y-76200000D03*
X137160000Y-76200000D03*
X134620000Y-73660000D03*
X137160000Y-73660000D03*
X134620000Y-71120000D03*
X137160000Y-71120000D03*
M02*
